<svg xmlns="http://www.w3.org/2000/svg" width="1117" height="314" viewBox="0 0 286779 80631" shape-rendering="geometricPrecision" image-rendering="optimizeQuality" fill-rule="evenodd"><defs><linearGradient id="A" gradientUnits="userSpaceOnUse" x1="181696" y1="50202" x2="181696" y2="14029"><stop offset="0" stop-color="#555"/><stop offset=".26" stop-color="#555"/><stop offset=".4" stop-color="#1f1b20"/><stop offset=".6"/><stop offset="1" stop-color="#555"/></linearGradient><radialGradient id="B" gradientUnits="userSpaceOnUse" gradientTransform="matrix(1.36572 -0 -0 1.36573 -7983 -9161)" cx="21827" cy="25048" r="32113" fx="21827" fy="25048"><stop offset="0" stop-color="#a2d9f7"/><stop offset="1" stop-color="#008dd2"/></radialGradient></defs><g fill-rule="nonzero"><path d="M32745 5313l46 1 2760 148c491 35 1140 92 1955 172-1919-3450-4117-5487-6335-5487h-2c-308 0-602-52-878-147-8147 446-15503 3952-20935 9383-3605 3605-6360 8056-7938 13024 1485-1068 3185-2047 5071-2925 6570-3057 15551-4969 25404-5018-504-1839-1099-3648-1796-5414-706-1785 731-3813 2648-3737zm8469-4030c1021 1521 1954 3275 2783 5228 2813 501 5596 1165 8319 2011 552 172 1606 1223 1783 1773 891 2760 1587 5562 2120 8380 637 259 1256 528 1854 806 1648 767 3153 1611 4498 2525-1596-4806-4299-9115-7806-12621-3731-3732-8371-6555-13551-8102zm22982 30651c-736-2470-3262-4823-7021-6801 175 1598 307 3189 399 4767 112 1923-1911 3387-3717 2692-1520-586-3340-1095-5315-1535l10 1244v10 6c-1 9970-1724 19056-4502 25670-744 1769-1572 3375-2474 4795 5034-1568 9544-4344 13188-7988 5823-5822 9433-13856 9433-22703v-2-5l-1-150zM32532 64222c2338-862 4595-3879 6456-8307 2528-6018 4096-14366 4096-23598v-6-10l-32-2260c-2190-337-4421-614-6543-844-1077-116-2318-1367-2425-2446-223-2257-532-4537-952-6816l-840-4h-10-5c-9199 0-17505 1725-23481 4506-5339 2485-8650 5679-8651 8985v2c0 309-51 605-145 882 548 7967 4023 15155 9354 20487 5822 5822 13856 9432 22704 9433h2 5l467-4zm13520-51731c303 1098 582 2237 835 3411 1142 235 2253 497 3333 784-267-1131-561-2250-888-3357-1085-309-2179-588-3280-838zm5308 10225c-1111-363-2271-693-3478-991 157 1210 287 2446 390 3703 1213 246 2395 515 3521 810-119-1184-264-2359-433-3522zm-8664 1759c-133-1316-297-2600-492-3849-1135-164-2296-300-3479-408 209 1261 389 2531 544 3804l3427 453zm-5112-9831c1173 82 2331 190 3468 323-317-1243-668-2432-1048-3559l-2250-267-1171-104c370 1191 701 2394 1001 3607z" fill="url(#B)"/><path d="M101107 38004c-173 4016-1303 7051-3382 9105-2078 2062-5006 3093-8791 3093-3984 0-7027-1312-9146-3926-2120-2623-3176-6359-3176-11208v-5930c0-4833 1097-8561 3283-11183 2194-2615 5237-3926 9138-3926 3827 0 6746 1072 8734 3208 1987 2144 3117 5221 3389 9229h-7125c-66-2483-446-4190-1147-5138-701-940-1987-1410-3851-1410-1905 0-3250 668-4041 1995-784 1336-1204 3522-1254 6573v6656c0 3497 388 5905 1171 7208 784 1311 2120 1963 4025 1963 1864 0 3159-454 3868-1369 709-907 1105-2556 1204-4940h7101zm21171 4528h-9683l-1888 7175h-7513l10993-35183h6499l11068 35183h-7588l-1888-7175zm-8140-5938h6573l-3283-12553-3290 12553zm20907 13113V14524h9303c4107 0 7381 1303 9822 3917 2441 2606 3687 6186 3728 10730v5699c0 4627-1221 8256-3654 10886-2441 2631-5806 3951-10094 3951h-9105zm7101-29245v23356h2127c2367 0 4033-627 5007-1872 964-1245 1468-3398 1517-6457v-6112c0-3291-462-5575-1377-6878-916-1295-2483-1971-4685-2037h-2589zm27966 16874v12371h-7109V14524h11984c3480 0 6259 1080 8329 3241 2070 2153 3101 4957 3101 8404s-1022 6169-3068 8173c-2045 1996-4882 2994-8503 2994h-4734zm0-5938h4875c1360 0 2399-445 3142-1328 742-883 1113-2169 1113-3851 0-1749-379-3143-1138-4182-751-1031-1765-1559-3043-1575h-4949v10936zm45814 3884c0 4726-1113 8388-3348 11002-2227 2615-5328 3918-9287 3918-3950 0-7051-1295-9303-3885-2251-2581-3398-6210-3431-10861v-6021c0-4841 1122-8618 3357-11332 2243-2713 5352-4074 9328-4074 3917 0 7002 1336 9253 4000 2260 2672 3398 6416 3431 11233v6020zm-7126-5913c0-3175-453-5534-1352-7084-899-1543-2301-2318-4206-2318-1881 0-3275 742-4182 2235-899 1493-1369 3761-1402 6804v6260c0 3084 462 5352 1378 6812 923 1460 2342 2186 4255 2186 1856 0 3233-710 4132-2136 899-1427 1361-3646 1377-6639v-6120zm19629 20338h-7101V14524h7101v35183zm30557 0h-7101l-10392-23076v23076h-7101V14524h7101l10416 23100V14524h7077v35183zm27793-29245h-8693v29245h-7125V20462h-8561v-5938h24379v5938z" fill="url(#A)"/><path d="M86387 72099h2163v2026h-2163v4518h-2369v-4518h-7352v-1456l7233-13495h2488v12925zm-7102 0h4733v-9246l-4733 9246zm22057-1757c0 2871-420 5020-1255 6439-840 1424-2154 2136-3948 2136-1734 0-3035-685-3888-2049-858-1365-1301-3414-1337-6152v-3345c0-2848 420-4970 1264-6371 840-1401 2154-2100 3939-2100 1752 0 3053 667 3897 1995 840 1328 1282 3340 1328 6033v3414zm-2364-3396c0-2058-228-3578-685-4554-451-977-1182-1465-2176-1465-973 0-1689 479-2141 1437-456 959-694 2405-707 4345v4012c0 2053 232 3596 707 4623 470 1031 1196 1547 2163 1547 963 0 1675-489 2127-1461 456-972 694-2455 712-4454v-4030zm14444 5153h2164v2026h-2164v4518h-2368v-4518h-7353v-1456l7234-13495h2487v12925zm-7101 0h4733v-9246l-4733 9246zm18654-5628h-939l-2974-5724v5724h-939v-7429h939l2985 5750v-5750h928zm1303-3015c0-802 195-1437 585-1905s904-702 1543-702 1154 228 1543 685c390 454 590 1076 601 1862v581c0 799-196 1433-582 1900-388 465-906 698-1552 698-639 0-1153-226-1538-679-386-452-586-1064-600-1837v-603zm903 519c0 568 112 1015 335 1340s522 487 900 487c796 0 1205-575 1230-1724v-623c0-565-112-1012-337-1340-224-329-525-492-903-492-371 0-667 163-890 492-223 328-335 774-335 1334v526zm5712-4359v1338h833v731h-833v3422c0 218 37 384 108 495 72 113 194 169 368 169 118 0 238-21 362-61l-11 764c-203 67-412 101-628 101-357 0-629-127-815-383-188-254-280-614-280-1080v-3427h-843v-731h843v-1338h896zm7870 3574h-2511v3281h-934v-7429h3868v804h-2934v2539h2511zm1151 266c0-802 195-1437 585-1905s904-702 1543-702 1155 228 1543 685c390 454 590 1076 601 1862v581c0 799-195 1433-582 1900-388 465-905 698-1551 698-640 0-1153-226-1538-679-387-452-587-1064-601-1837v-603zm904 519c0 568 111 1015 334 1340s523 487 901 487c796 0 1205-575 1229-1724v-623c0-565-111-1012-336-1340-224-329-526-492-904-492-371 0-667 163-890 492-223 328-334 774-334 1334v526zm7346 2013c-300 392-737 587-1312 587-500 0-878-172-1134-517-254-346-383-848-386-1508v-3596h897v3526c0 861 259 1291 776 1291 547 0 925-246 1132-735v-4082h904v5517h-857l-20-483zm3087-5034l26 594c350-465 798-699 1343-699 975 0 1470 652 1483 1954v3668h-898v-3624c0-432-72-739-216-920-145-183-362-273-651-273-223 0-425 75-605 224-177 150-322 345-430 586v4007h-903v-5517h851zm4014 2508c0-850 158-1498 477-1944s775-669 1371-669c526 0 938 214 1234 643v-2858h903v7837h-826l-47-591c-296 464-719 695-1269 695-572 0-1021-221-1345-665-326-444-491-1071-498-1881v-567zm904 511c0 619 90 1073 275 1362 183 291 483 436 897 436 449 0 785-227 1006-678v-2777c-231-441-566-662-1001-662-414 0-714 144-897 435-184 289-277 735-280 1336v548zm-33386 12174c-40 796-264 1405-670 1830s-981 638-1722 638c-746 0-1336-285-1775-850-439-568-658-1336-658-2306v-1348c0-967 224-1731 675-2292 451-562 1066-843 1845-843 717 0 1273 214 1664 645 394 430 608 1044 641 1844h-944c-40-606-168-1038-383-1296-214-259-540-388-978-388-507 0-897 198-1169 594-272 397-408 977-408 1741v1362c0 752 126 1329 380 1729 253 403 624 603 1110 603 485 0 837-120 1051-362 215-243 347-676 397-1301h944zm4628-2391h-1507v4754h-897v-4754h-1485v-763h3889zm4936 2260c0 874-156 1528-471 1956-314 428-760 643-1334 643-554 0-981-210-1280-628v2644h-899v-7638h817l45 609c303-475 737-714 1301-714 606 0 1059 211 1358 633 300 423 453 1053 463 1894v601zm-896-514c0-618-96-1074-286-1369-191-294-498-440-920-440-431 0-759 216-983 648v2868c221 422 552 632 994 632 408 0 709-146 900-440 194-295 291-744 295-1348v-551zm4904 3008c-56-119-94-319-119-599-318 468-728 704-1224 704-500 0-890-142-1170-422-281-280-422-676-422-1186 0-561 190-1007 572-1336 381-329 903-498 1567-505h662v-588c0-331-73-566-220-707-146-140-369-209-667-209-273 0-494 81-663 243-171 162-256 368-256 617h-902c0-282 83-552 249-808 167-258 391-460 673-606 283-147 598-220 944-220 565 0 995 141 1289 422 295 280 444 689 451 1226v2784c4 427 61 794 174 1108v82h-938zm-1205-721c221 0 431-61 632-183 202-122 348-275 439-458v-1313h-511c-428 7-766 103-1015 287-247 185-373 445-373 777 0 312 65 538 190 679 126 141 338 211 638 211zm7244 721h-897v-2351h-1990v2351h-907v-5517h907v2393h1990v-2393h897zm1523-5517h907v4744h1995v-4744h897v4744h582l-92 2413h-800v-1640h-3489zm8238 5517c-55-119-94-319-118-599-319 468-728 704-1224 704-500 0-890-142-1171-422-280-280-421-676-421-1186 0-561 190-1007 571-1336 382-329 904-498 1568-505h661v-588c0-331-73-566-219-707-147-140-369-209-667-209-274 0-495 81-664 243-170 162-256 368-256 617h-902c0-282 84-552 249-808 167-258 392-460 674-606 282-147 597-220 944-220 564 0 995 141 1289 422 294 280 444 689 451 1226v2784c3 427 61 794 174 1108v82h-939zm-1205-721c222 0 432-61 632-183 202-122 349-275 439-458v-1313h-510c-428 7-766 103-1015 287-247 185-373 445-373 777 0 312 65 538 190 679s338 211 637 211zm9638 721h-897v-2351h-1991v2351h-907v-5517h907v2393h1991v-2393h897zm3413 105c-688 0-1216-206-1583-615-366-411-554-1012-561-1805v-668c0-824 180-1468 538-1937 359-468 861-702 1503-702 646 0 1129 206 1449 619 321 411 483 1053 490 1924v592h-3081v127c0 591 111 1021 334 1289s544 402 961 402c265 0 500-50 702-150s392-257 570-475l468 571c-392 552-987 828-1790 828zm-103-4953c-374 0-651 128-831 386-181 258-283 659-306 1202h2173v-124c-24-526-118-900-283-1127-164-224-417-337-753-337zm9293 4848h-897v-2351h-1991v2351h-907v-5517h907v2393h1991v-2393h897zm4282 0c-56-119-94-319-118-599-319 468-728 704-1225 704-499 0-889-142-1170-422-280-280-421-676-421-1186 0-561 189-1007 571-1336 381-329 904-498 1567-505h662v-588c0-331-73-566-219-707-147-140-370-209-667-209-274 0-495 81-664 243-171 162-256 368-256 617h-902c0-282 83-552 249-808 167-258 392-460 674-606 282-147 597-220 944-220 564 0 994 141 1288 422 295 280 445 689 452 1226v2784c3 427 61 794 174 1108v82h-939zm-1205-721c221 0 432-61 632-183 202-122 349-275 439-458v-1313h-510c-429 7-767 103-1016 287-247 185-372 445-372 777 0 312 64 538 190 679 125 141 337 211 637 211zm6353-4796h897v5517h-897v-4023l-2001 4023h-902v-5517h902v4028l2001-4028zm528-2017c0 415-142 749-422 1001-280 253-649 379-1104 379-456 0-825-128-1107-382-283-252-424-587-424-998h770c0 239 64 425 193 561 131 134 319 202 568 202 237 0 423-66 557-200 136-133 202-321 202-563h767zm1798 6761l270-387c293-449 462-1109 506-1983l76-2374h3081v4744h644v2392h-904v-1619h-3138v1619h-907l5-2392h367zm1005 0h2031v-3866h-1306l-47 1342c-47 1073-274 1912-678 2524zm6582 878c-688 0-1216-206-1584-615-365-411-553-1012-560-1805v-668c0-824 179-1468 538-1937 359-468 860-702 1503-702 646 0 1128 206 1449 619 320 411 482 1053 489 1924v592h-3081v127c0 591 112 1021 335 1289s543 402 961 402c265 0 500-50 702-150s392-257 569-475l469 571c-392 552-988 828-1790 828zm-103-4953c-375 0-651 128-831 386-181 258-284 659-307 1202h2174v-124c-24-526-119-900-284-1127-164-224-416-337-752-337zm6899 4848h-896v-2351h-1991v2351h-907v-5517h907v2393h1991v-2393h896zm4283 0c-56-119-94-319-119-599-318 468-728 704-1224 704-500 0-890-142-1170-422-281-280-422-676-422-1186 0-561 190-1007 572-1336 381-329 904-498 1567-505h662v-588c0-331-73-566-220-707-146-140-369-209-667-209-273 0-494 81-663 243-171 162-256 368-256 617h-902c0-282 83-552 249-808 167-258 392-460 674-606 282-147 597-220 943-220 565 0 995 141 1289 422 295 280 444 689 451 1226v2784c4 427 61 794 174 1108v82h-938zm-1205-721c221 0 431-61 632-183 202-122 348-275 439-458v-1313h-511c-428 7-766 103-1015 287-247 185-373 445-373 777 0 312 65 538 190 679 126 141 338 211 638 211z" fill="#2b2a29"/></g></svg>