<?xml version="1.0" encoding="UTF-8"?>
<!DOCTYPE svg PUBLIC "-//W3C//DTD SVG 1.1//EN" "http://www.w3.org/Graphics/SVG/1.1/DTD/svg11.dtd">
<!-- Creator: CorelDRAW 2018 (64-Bit) -->
<svg xmlns="http://www.w3.org/2000/svg" xml:space="preserve" width="1117px" height="314px" version="1.1" style="shape-rendering:geometricPrecision; text-rendering:geometricPrecision; image-rendering:optimizeQuality; fill-rule:evenodd; clip-rule:evenodd"
viewBox="0 0 286779 80631"
 xmlns:xlink="http://www.w3.org/1999/xlink">
 <defs>
  <style type="text/css">
   <![CDATA[
    .fil2 {fill:#2B2A29;fill-rule:nonzero}
    .fil1 {fill:url(#id0);fill-rule:nonzero}
    .fil0 {fill:url(#id1);fill-rule:nonzero}
   ]]>
  </style>
  <linearGradient id="id0" gradientUnits="userSpaceOnUse" x1="181696" y1="50202" x2="181696" y2="14029">
   <stop offset="0" style="stop-opacity:1; stop-color:#555555"/>
   <stop offset="0.258824" style="stop-opacity:1; stop-color:#555555"/>
   <stop offset="0.4" style="stop-opacity:1; stop-color:#1F1B20"/>
   <stop offset="0.6" style="stop-opacity:1; stop-color:black"/>
   <stop offset="1" style="stop-opacity:1; stop-color:#555555"/>
  </linearGradient>
  <radialGradient id="id1" gradientUnits="userSpaceOnUse" gradientTransform="matrix(1.36572 -0 -0 1.36573 -7983 -9161)" cx="21827" cy="25048" r="32113" fx="21827" fy="25048">
   <stop offset="0" style="stop-opacity:1; stop-color:#A2D9F7"/>
   <stop offset="1" style="stop-opacity:1; stop-color:#008DD2"/>
  </radialGradient>
 </defs>
 <g id="Layer_x0020_1">
  <metadata id="CorelCorpID_0Corel-Layer"/>
  <path class="fil0" d="M32745 5313l46 1c1019,41 1945,90 2760,148 491,35 1140,92 1955,172 -1919,-3450 -4117,-5487 -6335,-5487l-2 0c-308,0 -602,-52 -878,-147 -8147,446 -15503,3952 -20935,9383 -3605,3605 -6360,8056 -7938,13024 1485,-1068 3185,-2047 5071,-2925 6570,-3057 15551,-4969 25404,-5018 -504,-1839 -1099,-3648 -1796,-5414 -706,-1785 731,-3813 2648,-3737zm8469 -4030c1021,1521 1954,3275 2783,5228 2813,501 5596,1165 8319,2011 552,172 1606,1223 1783,1773 891,2760 1587,5562 2120,8380 637,259 1256,528 1854,806 1648,767 3153,1611 4498,2525 -1596,-4806 -4299,-9115 -7806,-12621 -3731,-3732 -8371,-6555 -13551,-8102zm22982 30651c-736,-2470 -3262,-4823 -7021,-6801 175,1598 307,3189 399,4767 112,1923 -1911,3387 -3717,2692 -1520,-586 -3340,-1095 -5315,-1535 6,413 10,828 10,1244l0 10 0 6c-1,9970 -1724,19056 -4502,25670 -744,1769 -1572,3375 -2474,4795 5034,-1568 9544,-4344 13188,-7988 5823,-5822 9433,-13856 9433,-22703l0 -2 0 -5c0,-50 -1,-100 -1,-150zm-31664 32288c2338,-862 4595,-3879 6456,-8307 2528,-6018 4096,-14366 4096,-23598l0 -6 0 -10c0,-760 -11,-1513 -32,-2260 -2190,-337 -4421,-614 -6543,-844 -1077,-116 -2318,-1367 -2425,-2446 -223,-2257 -532,-4537 -952,-6816 -279,-3 -559,-4 -840,-4l-10 0 -5 0c-9199,0 -17505,1725 -23481,4506 -5339,2485 -8650,5679 -8651,8985l0 2c0,309 -51,605 -145,882 548,7967 4023,15155 9354,20487 5822,5822 13856,9432 22704,9433l2 0 5 0c156,0 312,-2 467,-4zm13520 -51731c303,1098 582,2237 835,3411 1142,235 2253,497 3333,784 -267,-1131 -561,-2250 -888,-3357 -1085,-309 -2179,-588 -3280,-838zm5308 10225c-1111,-363 -2271,-693 -3478,-991 157,1210 287,2446 390,3703 1213,246 2395,515 3521,810 -119,-1184 -264,-2359 -433,-3522zm-8664 1759c-133,-1316 -297,-2600 -492,-3849 -1135,-164 -2296,-300 -3479,-408 209,1261 389,2531 544,3804 1126,136 2275,286 3427,453zm-5112 -9831c1173,82 2331,190 3468,323 -317,-1243 -668,-2432 -1048,-3559 -749,-101 -1499,-189 -2250,-267 -309,-31 -700,-66 -1171,-104 370,1191 701,2394 1001,3607z"/>
  <path class="fil1" d="M101107 38004c-173,4016 -1303,7051 -3382,9105 -2078,2062 -5006,3093 -8791,3093 -3984,0 -7027,-1312 -9146,-3926 -2120,-2623 -3176,-6359 -3176,-11208l0 -5930c0,-4833 1097,-8561 3283,-11183 2194,-2615 5237,-3926 9138,-3926 3827,0 6746,1072 8734,3208 1987,2144 3117,5221 3389,9229l-7125 0c-66,-2483 -446,-4190 -1147,-5138 -701,-940 -1987,-1410 -3851,-1410 -1905,0 -3250,668 -4041,1995 -784,1336 -1204,3522 -1254,6573l0 6656c0,3497 388,5905 1171,7208 784,1311 2120,1963 4025,1963 1864,0 3159,-454 3868,-1369 709,-907 1105,-2556 1204,-4940l7101 0zm21171 4528l-9683 0 -1888 7175 -7513 0 10993 -35183 6499 0 11068 35183 -7588 0 -1888 -7175zm-8140 -5938l6573 0 -3283 -12553 -3290 12553zm20907 13113l0 -35183 9303 0c4107,0 7381,1303 9822,3917 2441,2606 3687,6186 3728,10730l0 5699c0,4627 -1221,8256 -3654,10886 -2441,2631 -5806,3951 -10094,3951l-9105 0zm7101 -29245l0 23356 2127 0c2367,0 4033,-627 5007,-1872 964,-1245 1468,-3398 1517,-6457l0 -6112c0,-3291 -462,-5575 -1377,-6878 -916,-1295 -2483,-1971 -4685,-2037l-2589 0zm27966 16874l0 12371 -7109 0 0 -35183 11984 0c3480,0 6259,1080 8329,3241 2070,2153 3101,4957 3101,8404 0,3447 -1022,6169 -3068,8173 -2045,1996 -4882,2994 -8503,2994l-4734 0zm0 -5938l4875 0c1360,0 2399,-445 3142,-1328 742,-883 1113,-2169 1113,-3851 0,-1749 -379,-3143 -1138,-4182 -751,-1031 -1765,-1559 -3043,-1575l-4949 0 0 10936zm45814 3884c0,4726 -1113,8388 -3348,11002 -2227,2615 -5328,3918 -9287,3918 -3950,0 -7051,-1295 -9303,-3885 -2251,-2581 -3398,-6210 -3431,-10861l0 -6021c0,-4841 1122,-8618 3357,-11332 2243,-2713 5352,-4074 9328,-4074 3917,0 7002,1336 9253,4000 2260,2672 3398,6416 3431,11233l0 6020zm-7126 -5913c0,-3175 -453,-5534 -1352,-7084 -899,-1543 -2301,-2318 -4206,-2318 -1881,0 -3275,742 -4182,2235 -899,1493 -1369,3761 -1402,6804l0 6260c0,3084 462,5352 1378,6812 923,1460 2342,2186 4255,2186 1856,0 3233,-710 4132,-2136 899,-1427 1361,-3646 1377,-6639l0 -6120zm19629 20338l-7101 0 0 -35183 7101 0 0 35183zm30557 0l-7101 0 -10392 -23076 0 23076 -7101 0 0 -35183 7101 0 10416 23100 0 -23100 7077 0 0 35183zm27793 -29245l-8693 0 0 29245 -7125 0 0 -29245 -8561 0 0 -5938 24379 0 0 5938z"/>
  <path class="fil2" d="M86387 72099l2163 0 0 2026 -2163 0 0 4518 -2369 0 0 -4518 -7352 0 0 -1456 7233 -13495 2488 0 0 12925zm-7102 0l4733 0 0 -9246 -4733 9246z"/>
  <path id="1" class="fil2" d="M101342 70342c0,2871 -420,5020 -1255,6439 -840,1424 -2154,2136 -3948,2136 -1734,0 -3035,-685 -3888,-2049 -858,-1365 -1301,-3414 -1337,-6152l0 -3345c0,-2848 420,-4970 1264,-6371 840,-1401 2154,-2100 3939,-2100 1752,0 3053,667 3897,1995 840,1328 1282,3340 1328,6033l0 3414zm-2364 -3396c0,-2058 -228,-3578 -685,-4554 -451,-977 -1182,-1465 -2176,-1465 -973,0 -1689,479 -2141,1437 -456,959 -694,2405 -707,4345l0 4012c0,2053 232,3596 707,4623 470,1031 1196,1547 2163,1547 963,0 1675,-489 2127,-1461 456,-972 694,-2455 712,-4454l0 -4030z"/>
  <path id="2" class="fil2" d="M113422 72099l2164 0 0 2026 -2164 0 0 4518 -2368 0 0 -4518 -7353 0 0 -1456 7234 -13495 2487 0 0 12925zm-7101 0l4733 0 0 -9246 -4733 9246z"/>
  <polygon class="fil2" points="124975,66471 124036,66471 121062,60747 121062,66471 120123,66471 120123,59042 121062,59042 124047,64792 124047,59042 124975,59042 "/>
  <path id="1" class="fil2" d="M126278 63456c0,-802 195,-1437 585,-1905 390,-468 904,-702 1543,-702 639,0 1154,228 1543,685 390,454 590,1076 601,1862l0 581c0,799 -196,1433 -582,1900 -388,465 -906,698 -1552,698 -639,0 -1153,-226 -1538,-679 -386,-452 -586,-1064 -600,-1837l0 -603zm903 519c0,568 112,1015 335,1340 223,325 522,487 900,487 796,0 1205,-575 1230,-1724l0 -623c0,-565 -112,-1012 -337,-1340 -224,-329 -525,-492 -903,-492 -371,0 -667,163 -890,492 -223,328 -335,774 -335,1334l0 526z"/>
  <path id="2" class="fil2" d="M132893 59616l0 1338 833 0 0 731 -833 0 0 3422c0,218 37,384 108,495 72,113 194,169 368,169 118,0 238,-21 362,-61l-11 764c-203,67 -412,101 -628,101 -357,0 -629,-127 -815,-383 -188,-254 -280,-614 -280,-1080l0 -3427 -843 0 0 -731 843 0 0 -1338 896 0z"/>
  <polygon id="3" class="fil2" points="140763,63190 138252,63190 138252,66471 137318,66471 137318,59042 141186,59042 141186,59846 138252,59846 138252,62385 140763,62385 "/>
  <path id="4" class="fil2" d="M141914 63456c0,-802 195,-1437 585,-1905 390,-468 904,-702 1543,-702 639,0 1155,228 1543,685 390,454 590,1076 601,1862l0 581c0,799 -195,1433 -582,1900 -388,465 -905,698 -1551,698 -640,0 -1153,-226 -1538,-679 -387,-452 -587,-1064 -601,-1837l0 -603zm904 519c0,568 111,1015 334,1340 223,325 523,487 901,487 796,0 1205,-575 1229,-1724l0 -623c0,-565 -111,-1012 -336,-1340 -224,-329 -526,-492 -904,-492 -371,0 -667,163 -890,492 -223,328 -334,774 -334,1334l0 526z"/>
  <path id="5" class="fil2" d="M150164 65988c-300,392 -737,587 -1312,587 -500,0 -878,-172 -1134,-517 -254,-346 -383,-848 -386,-1508l0 -3596 897 0 0 3526c0,861 259,1291 776,1291 547,0 925,-246 1132,-735l0 -4082 904 0 0 5517 -857 0 -20 -483z"/>
  <path id="6" class="fil2" d="M153251 60954l26 594c350,-465 798,-699 1343,-699 975,0 1470,652 1483,1954l0 3668 -898 0 0 -3624c0,-432 -72,-739 -216,-920 -145,-183 -362,-273 -651,-273 -223,0 -425,75 -605,224 -177,150 -322,345 -430,586l0 4007 -903 0 0 -5517 851 0z"/>
  <path id="7" class="fil2" d="M157265 63462c0,-850 158,-1498 477,-1944 319,-446 775,-669 1371,-669 526,0 938,214 1234,643l0 -2858 903 0 0 7837 -826 0 -47 -591c-296,464 -719,695 -1269,695 -572,0 -1021,-221 -1345,-665 -326,-444 -491,-1071 -498,-1881l0 -567zm904 511c0,619 90,1073 275,1362 183,291 483,436 897,436 449,0 785,-227 1006,-678l0 -2777c-231,-441 -566,-662 -1001,-662 -414,0 -714,144 -897,435 -184,289 -277,735 -280,1336l0 548z"/>
  <path id="8" class="fil2" d="M124783 76147c-40,796 -264,1405 -670,1830 -406,425 -981,638 -1722,638 -746,0 -1336,-285 -1775,-850 -439,-568 -658,-1336 -658,-2306l0 -1348c0,-967 224,-1731 675,-2292 451,-562 1066,-843 1845,-843 717,0 1273,214 1664,645 394,430 608,1044 641,1844l-944 0c-40,-606 -168,-1038 -383,-1296 -214,-259 -540,-388 -978,-388 -507,0 -897,198 -1169,594 -272,397 -408,977 -408,1741l0 1362c0,752 126,1329 380,1729 253,403 624,603 1110,603 485,0 837,-120 1051,-362 215,-243 347,-676 397,-1301l944 0z"/>
  <polygon id="9" class="fil2" points="129411,73756 127904,73756 127904,78510 127007,78510 127007,73756 125522,73756 125522,72993 129411,72993 "/>
  <path id="10" class="fil2" d="M134347 76016c0,874 -156,1528 -471,1956 -314,428 -760,643 -1334,643 -554,0 -981,-210 -1280,-628l0 2644 -899 0 0 -7638 817 0 45 609c303,-475 737,-714 1301,-714 606,0 1059,211 1358,633 300,423 453,1053 463,1894l0 601zm-896 -514c0,-618 -96,-1074 -286,-1369 -191,-294 -498,-440 -920,-440 -431,0 -759,216 -983,648l0 2868c221,422 552,632 994,632 408,0 709,-146 900,-440 194,-295 291,-744 295,-1348l0 -551z"/>
  <path id="11" class="fil2" d="M138355 78510c-56,-119 -94,-319 -119,-599 -318,468 -728,704 -1224,704 -500,0 -890,-142 -1170,-422 -281,-280 -422,-676 -422,-1186 0,-561 190,-1007 572,-1336 381,-329 903,-498 1567,-505l662 0 0 -588c0,-331 -73,-566 -220,-707 -146,-140 -369,-209 -667,-209 -273,0 -494,81 -663,243 -171,162 -256,368 -256,617l-902 0c0,-282 83,-552 249,-808 167,-258 391,-460 673,-606 283,-147 598,-220 944,-220 565,0 995,141 1289,422 295,280 444,689 451,1226l0 2784c4,427 61,794 174,1108l0 82 -938 0zm-1205 -721c221,0 431,-61 632,-183 202,-122 348,-275 439,-458l0 -1313 -511 0c-428,7 -766,103 -1015,287 -247,185 -373,445 -373,777 0,312 65,538 190,679 126,141 338,211 638,211z"/>
  <polygon id="12" class="fil2" points="144394,78510 143497,78510 143497,76159 141507,76159 141507,78510 140600,78510 140600,72993 141507,72993 141507,75386 143497,75386 143497,72993 144394,72993 "/>
  <polygon id="13" class="fil2" points="145917,72993 146824,72993 146824,77737 148819,77737 148819,72993 149716,72993 149716,77737 150298,77737 150206,80150 149406,80150 149406,78510 145917,78510 "/>
  <path id="14" class="fil2" d="M154155 78510c-55,-119 -94,-319 -118,-599 -319,468 -728,704 -1224,704 -500,0 -890,-142 -1171,-422 -280,-280 -421,-676 -421,-1186 0,-561 190,-1007 571,-1336 382,-329 904,-498 1568,-505l661 0 0 -588c0,-331 -73,-566 -219,-707 -147,-140 -369,-209 -667,-209 -274,0 -495,81 -664,243 -170,162 -256,368 -256,617l-902 0c0,-282 84,-552 249,-808 167,-258 392,-460 674,-606 282,-147 597,-220 944,-220 564,0 995,141 1289,422 294,280 444,689 451,1226l0 2784c3,427 61,794 174,1108l0 82 -939 0zm-1205 -721c222,0 432,-61 632,-183 202,-122 349,-275 439,-458l0 -1313 -510 0c-428,7 -766,103 -1015,287 -247,185 -373,445 -373,777 0,312 65,538 190,679 125,141 338,211 637,211z"/>
  <polygon id="15" class="fil2" points="162588,78510 161691,78510 161691,76159 159700,76159 159700,78510 158793,78510 158793,72993 159700,72993 159700,75386 161691,75386 161691,72993 162588,72993 "/>
  <path id="16" class="fil2" d="M166001 78615c-688,0 -1216,-206 -1583,-615 -366,-411 -554,-1012 -561,-1805l0 -668c0,-824 180,-1468 538,-1937 359,-468 861,-702 1503,-702 646,0 1129,206 1449,619 321,411 483,1053 490,1924l0 592 -3081 0 0 127c0,591 111,1021 334,1289 223,268 544,402 961,402 265,0 500,-50 702,-150 202,-100 392,-257 570,-475l468 571c-392,552 -987,828 -1790,828zm-103 -4953c-374,0 -651,128 -831,386 -181,258 -283,659 -306,1202l2173 0 0 -124c-24,-526 -118,-900 -283,-1127 -164,-224 -417,-337 -753,-337z"/>
  <polygon id="17" class="fil2" points="175191,78510 174294,78510 174294,76159 172303,76159 172303,78510 171396,78510 171396,72993 172303,72993 172303,75386 174294,75386 174294,72993 175191,72993 "/>
  <path id="18" class="fil2" d="M179473 78510c-56,-119 -94,-319 -118,-599 -319,468 -728,704 -1225,704 -499,0 -889,-142 -1170,-422 -280,-280 -421,-676 -421,-1186 0,-561 189,-1007 571,-1336 381,-329 904,-498 1567,-505l662 0 0 -588c0,-331 -73,-566 -219,-707 -147,-140 -370,-209 -667,-209 -274,0 -495,81 -664,243 -171,162 -256,368 -256,617l-902 0c0,-282 83,-552 249,-808 167,-258 392,-460 674,-606 282,-147 597,-220 944,-220 564,0 994,141 1288,422 295,280 445,689 452,1226l0 2784c3,427 61,794 174,1108l0 82 -939 0zm-1205 -721c221,0 432,-61 632,-183 202,-122 349,-275 439,-458l0 -1313 -510 0c-429,7 -767,103 -1016,287 -247,185 -372,445 -372,777 0,312 64,538 190,679 125,141 337,211 637,211z"/>
  <path id="19" class="fil2" d="M184621 72993l897 0 0 5517 -897 0 0 -4023 -2001 4023 -902 0 0 -5517 902 0 0 4028 2001 -4028zm528 -2017c0,415 -142,749 -422,1001 -280,253 -649,379 -1104,379 -456,0 -825,-128 -1107,-382 -283,-252 -424,-587 -424,-998l770 0c0,239 64,425 193,561 131,134 319,202 568,202 237,0 423,-66 557,-200 136,-133 202,-321 202,-563l767 0z"/>
  <path id="20" class="fil2" d="M186947 77737l270 -387c293,-449 462,-1109 506,-1983l76 -2374 3081 0 0 4744 644 0 0 2392 -904 0 0 -1619 -3138 0 0 1619 -907 0 5 -2392 367 0zm1005 0l2031 0 0 -3866 -1306 0 -47 1342c-47,1073 -274,1912 -678,2524z"/>
  <path id="21" class="fil2" d="M194534 78615c-688,0 -1216,-206 -1584,-615 -365,-411 -553,-1012 -560,-1805l0 -668c0,-824 179,-1468 538,-1937 359,-468 860,-702 1503,-702 646,0 1128,206 1449,619 320,411 482,1053 489,1924l0 592 -3081 0 0 127c0,591 112,1021 335,1289 223,268 543,402 961,402 265,0 500,-50 702,-150 202,-100 392,-257 569,-475l469 571c-392,552 -988,828 -1790,828zm-103 -4953c-375,0 -651,128 -831,386 -181,258 -284,659 -307,1202l2174 0 0 -124c-24,-526 -119,-900 -284,-1127 -164,-224 -416,-337 -752,-337z"/>
  <polygon id="22" class="fil2" points="201330,78510 200434,78510 200434,76159 198443,76159 198443,78510 197536,78510 197536,72993 198443,72993 198443,75386 200434,75386 200434,72993 201330,72993 "/>
  <path id="23" class="fil2" d="M205613 78510c-56,-119 -94,-319 -119,-599 -318,468 -728,704 -1224,704 -500,0 -890,-142 -1170,-422 -281,-280 -422,-676 -422,-1186 0,-561 190,-1007 572,-1336 381,-329 904,-498 1567,-505l662 0 0 -588c0,-331 -73,-566 -220,-707 -146,-140 -369,-209 -667,-209 -273,0 -494,81 -663,243 -171,162 -256,368 -256,617l-902 0c0,-282 83,-552 249,-808 167,-258 392,-460 674,-606 282,-147 597,-220 943,-220 565,0 995,141 1289,422 295,280 444,689 451,1226l0 2784c4,427 61,794 174,1108l0 82 -938 0zm-1205 -721c221,0 431,-61 632,-183 202,-122 348,-275 439,-458l0 -1313 -511 0c-428,7 -766,103 -1015,287 -247,185 -373,445 -373,777 0,312 65,538 190,679 126,141 338,211 638,211z"/>
 </g>
</svg>
