<?xml version="1.0" encoding="UTF-8"?>
<!DOCTYPE svg PUBLIC "-//W3C//DTD SVG 1.1//EN" "http://www.w3.org/Graphics/SVG/1.1/DTD/svg11.dtd">
<!-- Creator: CorelDRAW 2018 (64-Bit) -->
<svg xmlns="http://www.w3.org/2000/svg" xml:space="preserve" width="1117px" height="315px" version="1.1" style="shape-rendering:geometricPrecision; text-rendering:geometricPrecision; image-rendering:optimizeQuality; fill-rule:evenodd; clip-rule:evenodd"
viewBox="0 0 286779 80886"
 xmlns:xlink="http://www.w3.org/1999/xlink">
 <defs>
  <style type="text/css">
   <![CDATA[
    .fil2 {fill:#2B2A29;fill-rule:nonzero}
    .fil1 {fill:url(#id0);fill-rule:nonzero}
    .fil0 {fill:url(#id1);fill-rule:nonzero}
   ]]>
  </style>
  <linearGradient id="id0" gradientUnits="userSpaceOnUse" x1="181696" y1="50202" x2="181696" y2="14029">
   <stop offset="0" style="stop-opacity:1; stop-color:#555555"/>
   <stop offset="0.258824" style="stop-opacity:1; stop-color:#555555"/>
   <stop offset="0.4" style="stop-opacity:1; stop-color:#1F1B20"/>
   <stop offset="0.6" style="stop-opacity:1; stop-color:black"/>
   <stop offset="1" style="stop-opacity:1; stop-color:#555555"/>
  </linearGradient>
  <radialGradient id="id1" gradientUnits="userSpaceOnUse" gradientTransform="matrix(1.36572 -0 -0 1.36573 -7983 -9161)" cx="21827" cy="25048" r="32113" fx="21827" fy="25048">
   <stop offset="0" style="stop-opacity:1; stop-color:#A2D9F7"/>
   <stop offset="1" style="stop-opacity:1; stop-color:#008DD2"/>
  </radialGradient>
 </defs>
 <g id="Layer_x0020_1">
  <metadata id="CorelCorpID_0Corel-Layer"/>
  <path class="fil0" d="M32745 5313l46 1c1019,41 1945,90 2760,148 491,35 1140,92 1955,172 -1919,-3450 -4117,-5487 -6335,-5487l-2 0c-308,0 -602,-52 -878,-147 -8147,446 -15503,3952 -20935,9383 -3605,3605 -6360,8056 -7938,13024 1485,-1068 3185,-2047 5071,-2925 6570,-3057 15551,-4969 25404,-5018 -504,-1839 -1099,-3648 -1796,-5414 -706,-1785 731,-3813 2648,-3737zm8469 -4030c1021,1521 1954,3275 2783,5228 2813,501 5596,1165 8319,2011 552,172 1606,1223 1783,1773 891,2760 1587,5562 2120,8380 637,259 1256,528 1854,806 1648,767 3153,1611 4498,2525 -1596,-4806 -4299,-9115 -7806,-12621 -3731,-3732 -8371,-6555 -13551,-8102zm22982 30651c-736,-2470 -3262,-4823 -7021,-6801 175,1598 307,3189 399,4767 112,1923 -1911,3387 -3717,2692 -1520,-586 -3340,-1095 -5315,-1535 6,413 10,828 10,1244l0 10 0 6c-1,9970 -1724,19056 -4502,25670 -744,1769 -1572,3375 -2474,4795 5034,-1568 9544,-4344 13188,-7988 5823,-5822 9433,-13856 9433,-22703l0 -2 0 -5c0,-50 -1,-100 -1,-150zm-31664 32288c2338,-862 4595,-3879 6456,-8307 2528,-6018 4096,-14366 4096,-23598l0 -6 0 -10c0,-760 -11,-1513 -32,-2260 -2190,-337 -4421,-614 -6543,-844 -1077,-116 -2318,-1367 -2425,-2446 -223,-2257 -532,-4537 -952,-6816 -279,-3 -559,-4 -840,-4l-10 0 -5 0c-9199,0 -17505,1725 -23481,4506 -5339,2485 -8650,5679 -8651,8985l0 2c0,309 -51,605 -145,882 548,7967 4023,15155 9354,20487 5822,5822 13856,9432 22704,9433l2 0 5 0c156,0 312,-2 467,-4zm13520 -51731c303,1098 582,2237 835,3411 1142,235 2253,497 3333,784 -267,-1131 -561,-2250 -888,-3357 -1085,-309 -2179,-588 -3280,-838zm5308 10225c-1111,-363 -2271,-693 -3478,-991 157,1210 287,2446 390,3703 1213,246 2395,515 3521,810 -119,-1184 -264,-2359 -433,-3522zm-8664 1759c-133,-1316 -297,-2600 -492,-3849 -1135,-164 -2296,-300 -3479,-408 209,1261 389,2531 544,3804 1126,136 2275,286 3427,453zm-5112 -9831c1173,82 2331,190 3468,323 -317,-1243 -668,-2432 -1048,-3559 -749,-101 -1499,-189 -2250,-267 -309,-31 -700,-66 -1171,-104 370,1191 701,2394 1001,3607z"/>
  <path class="fil1" d="M101107 38004c-173,4016 -1303,7051 -3382,9105 -2078,2062 -5006,3093 -8791,3093 -3984,0 -7027,-1312 -9146,-3926 -2120,-2623 -3176,-6359 -3176,-11208l0 -5930c0,-4833 1097,-8561 3283,-11183 2194,-2615 5237,-3926 9138,-3926 3827,0 6746,1072 8734,3208 1987,2144 3117,5221 3389,9229l-7125 0c-66,-2483 -446,-4190 -1147,-5138 -701,-940 -1987,-1410 -3851,-1410 -1905,0 -3250,668 -4041,1995 -784,1336 -1204,3522 -1254,6573l0 6656c0,3497 388,5905 1171,7208 784,1311 2120,1963 4025,1963 1864,0 3159,-454 3868,-1369 709,-907 1105,-2556 1204,-4940l7101 0zm21171 4528l-9683 0 -1888 7175 -7513 0 10993 -35183 6499 0 11068 35183 -7588 0 -1888 -7175zm-8140 -5938l6573 0 -3283 -12553 -3290 12553zm20907 13113l0 -35183 9303 0c4107,0 7381,1303 9822,3917 2441,2606 3687,6186 3728,10730l0 5699c0,4627 -1221,8256 -3654,10886 -2441,2631 -5806,3951 -10094,3951l-9105 0zm7101 -29245l0 23356 2127 0c2367,0 4033,-627 5007,-1872 964,-1245 1468,-3398 1517,-6457l0 -6112c0,-3291 -462,-5575 -1377,-6878 -916,-1295 -2483,-1971 -4685,-2037l-2589 0zm27966 16874l0 12371 -7109 0 0 -35183 11984 0c3480,0 6259,1080 8329,3241 2070,2153 3101,4957 3101,8404 0,3447 -1022,6169 -3068,8173 -2045,1996 -4882,2994 -8503,2994l-4734 0zm0 -5938l4875 0c1360,0 2399,-445 3142,-1328 742,-883 1113,-2169 1113,-3851 0,-1749 -379,-3143 -1138,-4182 -751,-1031 -1765,-1559 -3043,-1575l-4949 0 0 10936zm45814 3884c0,4726 -1113,8388 -3348,11002 -2227,2615 -5328,3918 -9287,3918 -3950,0 -7051,-1295 -9303,-3885 -2251,-2581 -3398,-6210 -3431,-10861l0 -6021c0,-4841 1122,-8618 3357,-11332 2243,-2713 5352,-4074 9328,-4074 3917,0 7002,1336 9253,4000 2260,2672 3398,6416 3431,11233l0 6020zm-7126 -5913c0,-3175 -453,-5534 -1352,-7084 -899,-1543 -2301,-2318 -4206,-2318 -1881,0 -3275,742 -4182,2235 -899,1493 -1369,3761 -1402,6804l0 6260c0,3084 462,5352 1378,6812 923,1460 2342,2186 4255,2186 1856,0 3233,-710 4132,-2136 899,-1427 1361,-3646 1377,-6639l0 -6120zm19629 20338l-7101 0 0 -35183 7101 0 0 35183zm30557 0l-7101 0 -10392 -23076 0 23076 -7101 0 0 -35183 7101 0 10416 23100 0 -23100 7077 0 0 35183zm27793 -29245l-8693 0 0 29245 -7125 0 0 -29245 -8561 0 0 -5938 24379 0 0 5938z"/>
  <path class="fil2" d="M77283 68890l840 -9716 8465 0 0 2300 -6471 0 -456 5303c803,-561 1666,-840 2596,-840 1516,0 2702,589 3569,1767 863,1173 1296,2756 1296,4741 0,2018 -470,3597 -1410,4747 -940,1150 -2231,1725 -3870,1725 -1465,0 -2651,-479 -3569,-1433 -921,-954 -1446,-2273 -1579,-3957l2218 0c133,1114 452,1953 959,2515 502,565 1159,849 1971,849 918,0 1634,-398 2150,-1196 520,-799 776,-1871 776,-3227 0,-1273 -279,-2309 -835,-3112 -557,-799 -1306,-1200 -2250,-1200 -785,0 -1415,205 -1890,615l-625 630 -1885 -511z"/>
  <path id="1" class="fil2" d="M100239 70342c0,2870 -420,5020 -1255,6439 -840,1424 -2154,2136 -3948,2136 -1734,0 -3035,-685 -3888,-2049 -858,-1365 -1301,-3414 -1337,-6152l0 -3345c0,-2848 420,-4970 1264,-6372 839,-1400 2154,-2099 3938,-2099 1753,0 3054,666 3898,1994 839,1329 1282,3341 1328,6034l0 3414zm-2364 -3396c0,-2058 -228,-3578 -685,-4554 -452,-977 -1182,-1466 -2177,-1466 -972,0 -1688,480 -2140,1438 -456,958 -694,2405 -708,4345l0 4011c0,2054 233,3597 708,4623 470,1032 1196,1548 2163,1548 963,0 1675,-489 2127,-1461 456,-972 693,-2455 712,-4454l0 -4030z"/>
  <path id="2" class="fil2" d="M113757 70342c0,2870 -420,5020 -1255,6439 -840,1424 -2154,2136 -3948,2136 -1734,0 -3035,-685 -3888,-2049 -858,-1365 -1301,-3414 -1338,-6152l0 -3345c0,-2848 420,-4970 1265,-6372 839,-1400 2154,-2099 3938,-2099 1753,0 3053,666 3898,1994 839,1329 1282,3341 1328,6034l0 3414zm-2364 -3396c0,-2058 -229,-3578 -685,-4554 -452,-977 -1182,-1466 -2177,-1466 -972,0 -1688,480 -2140,1438 -457,958 -694,2405 -708,4345l0 4011c0,2054 233,3597 708,4623 470,1032 1195,1548 2163,1548 963,0 1675,-489 2127,-1461 456,-972 693,-2455 712,-4454l0 -4030z"/>
  <polygon class="fil2" points="121000,66621 120065,66621 120065,59192 121000,59192 "/>
  <path id="1" class="fil2" d="M123361 61104l26 594c351,-465 798,-698 1343,-698 975,0 1470,651 1484,1954l0 3667 -899 0 0 -3624c0,-432 -71,-738 -216,-919 -144,-183 -362,-274 -651,-274 -223,0 -425,75 -604,225 -178,150 -323,345 -431,585l0 4007 -903 0 0 -5517 851 0z"/>
  <path id="2" class="fil2" d="M128746 59767l0 1337 832 0 0 732 -832 0 0 3422c0,217 36,383 108,494 71,113 193,169 367,169 119,0 239,-21 362,-61l-10 765c-204,66 -413,101 -629,101 -357,0 -628,-127 -815,-383 -188,-255 -280,-615 -280,-1080l0 -3427 -843 0 0 -732 843 0 0 -1337 897 0z"/>
  <path id="3" class="fil2" d="M132624 66726c-688,0 -1215,-206 -1583,-615 -366,-411 -554,-1012 -561,-1804l0 -669c0,-824 180,-1468 538,-1936 359,-469 861,-702 1503,-702 646,0 1129,205 1449,618 321,411 483,1053 490,1924l0 592 -3081 0 0 128c0,590 111,1020 334,1288 223,268 544,403 962,403 264,0 499,-51 702,-150 201,-101 391,-258 569,-476l468 572c-392,552 -987,827 -1790,827zm-103 -4953c-374,0 -651,129 -830,387 -181,257 -284,658 -307,1201l2174 0 0 -123c-25,-526 -119,-901 -284,-1127 -164,-225 -417,-338 -753,-338z"/>
  <path id="4" class="fil2" d="M137824 61945c-125,-24 -263,-36 -409,-36 -462,0 -785,254 -968,761l0 3951 -904 0 0 -5517 877 0 16 559c242,-442 584,-663 1026,-663 143,0 261,24 357,71l5 874z"/>
  <path id="5" class="fil2" d="M139574 61104l26 594c351,-465 798,-698 1343,-698 975,0 1470,651 1484,1954l0 3667 -899 0 0 -3624c0,-432 -71,-738 -216,-919 -144,-183 -362,-274 -651,-274 -223,0 -425,75 -604,225 -178,150 -323,345 -431,585l0 4007 -903 0 0 -5517 851 0z"/>
  <path id="6" class="fil2" d="M146620 66621c-55,-118 -94,-318 -118,-599 -319,469 -728,704 -1225,704 -499,0 -889,-141 -1170,-422 -280,-280 -421,-676 -421,-1186 0,-561 189,-1006 571,-1335 381,-330 904,-498 1567,-505l662 0 0 -589c0,-331 -73,-566 -219,-707 -147,-139 -370,-209 -667,-209 -274,0 -495,82 -664,244 -171,162 -256,367 -256,616l-902 0c0,-282 84,-552 249,-808 167,-258 392,-460 674,-606 282,-146 597,-219 944,-219 564,0 994,141 1289,421 294,281 444,690 451,1226l0 2785c3,426 61,794 174,1107l0 82 -939 0zm-1205 -721c221,0 432,-61 632,-183 202,-122 349,-275 439,-458l0 -1313 -510 0c-429,7 -767,103 -1016,288 -247,184 -372,444 -372,777 0,311 64,537 190,678 125,142 337,211 637,211z"/>
  <polygon id="7" class="fil2" points="149757,66621 148854,66621 148854,58785 149757,58785 "/>
  <path id="8" class="fil2" d="M156940 64742c0,-369 -101,-653 -301,-851 -200,-197 -563,-389 -1087,-577 -524,-186 -925,-383 -1202,-588 -276,-206 -483,-441 -621,-706 -138,-263 -207,-566 -207,-905 0,-589 197,-1075 590,-1456 392,-382 907,-571 1543,-571 435,0 822,97 1163,292 340,195 601,467 786,813 183,347 275,728 275,1143l-939 0c0,-460 -109,-815 -331,-1066 -221,-252 -540,-378 -954,-378 -378,0 -670,106 -878,317 -207,211 -312,507 -312,888 0,314 114,577 339,788 222,212 570,400 1039,567 731,242 1254,540 1569,893 315,354 472,817 472,1390 0,603 -195,1085 -587,1447 -390,363 -923,544 -1597,544 -432,0 -830,-94 -1196,-284 -366,-190 -653,-456 -862,-798 -209,-343 -314,-735 -314,-1177l939 0c0,460 129,817 385,1071 258,256 606,383 1048,383 413,0 721,-106 928,-317 208,-211 312,-498 312,-862z"/>
  <path id="9" class="fil2" d="M160954 66726c-688,0 -1215,-206 -1583,-615 -365,-411 -553,-1012 -560,-1804l0 -669c0,-824 179,-1468 538,-1936 359,-469 860,-702 1503,-702 646,0 1128,205 1449,618 320,411 482,1053 489,1924l0 592 -3081 0 0 128c0,590 112,1020 335,1288 222,268 543,403 961,403 265,0 500,-51 702,-150 202,-101 392,-258 569,-476l469 572c-392,552 -988,827 -1791,827zm-102 -4953c-375,0 -652,129 -831,387 -181,257 -284,658 -307,1201l2174 0 0 -123c-24,-526 -119,-901 -284,-1127 -164,-225 -416,-338 -752,-338z"/>
  <path id="10" class="fil2" d="M166154 61945c-125,-24 -263,-36 -409,-36 -461,0 -785,254 -968,761l0 3951 -904 0 0 -5517 878 0 15 559c242,-442 584,-663 1026,-663 143,0 261,24 357,71l5 874z"/>
  <polygon id="11" class="fil2" points="168713,65249 169757,61104 170677,61104 169038,66621 168366,66621 166708,61104 167626,61104 "/>
  <path id="12" class="fil2" d="M173521 66726c-688,0 -1215,-206 -1583,-615 -366,-411 -554,-1012 -561,-1804l0 -669c0,-824 180,-1468 538,-1936 359,-469 861,-702 1503,-702 646,0 1129,205 1449,618 321,411 483,1053 490,1924l0 592 -3081 0 0 128c0,590 111,1020 334,1288 223,268 544,403 961,403 265,0 500,-51 702,-150 202,-101 392,-258 570,-476l468 572c-392,552 -987,827 -1790,827zm-103 -4953c-374,0 -651,129 -830,387 -182,257 -284,658 -307,1201l2173 0 0 -123c-24,-526 -118,-901 -283,-1127 -164,-225 -417,-338 -753,-338z"/>
  <path id="13" class="fil2" d="M178721 61945c-125,-24 -263,-36 -409,-36 -462,0 -786,254 -968,761l0 3951 -904 0 0 -5517 877 0 16 559c242,-442 583,-663 1026,-663 143,0 261,24 357,71l5 874z"/>
  <polygon id="14" class="fil2" points="185701,63194 183073,63194 183073,65817 186135,65817 186135,66621 182139,66621 182139,59192 186084,59192 186084,59997 183073,59997 183073,62389 185701,62389 "/>
  <path id="15" class="fil2" d="M189480 61945c-126,-24 -263,-36 -409,-36 -462,0 -786,254 -969,761l0 3951 -903 0 0 -5517 877 0 16 559c242,-442 583,-663 1026,-663 142,0 261,24 357,71l5 874z"/>
  <path id="16" class="fil2" d="M192658 61945c-125,-24 -263,-36 -409,-36 -462,0 -786,254 -968,761l0 3951 -904 0 0 -5517 877 0 16 559c242,-442 583,-663 1026,-663 143,0 261,24 357,71l5 874z"/>
  <path id="17" class="fil2" d="M193266 63607c0,-803 195,-1437 585,-1905 390,-469 904,-702 1543,-702 639,0 1154,228 1543,684 390,455 590,1076 601,1862l0 582c0,799 -196,1433 -582,1900 -388,464 -906,698 -1552,698 -639,0 -1153,-227 -1537,-679 -387,-453 -587,-1064 -601,-1838l0 -602zm903 519c0,567 112,1015 335,1339 223,326 522,488 900,488 796,0 1205,-575 1230,-1725l0 -623c0,-564 -112,-1012 -336,-1339 -225,-329 -526,-493 -904,-493 -371,0 -667,164 -890,493 -223,327 -335,773 -335,1334l0 526z"/>
  <path id="18" class="fil2" d="M200980 61945c-125,-24 -263,-36 -409,-36 -461,0 -785,254 -968,761l0 3951 -904 0 0 -5517 878 0 15 559c242,-442 584,-663 1026,-663 143,0 261,24 357,71l5 874z"/>
  <path id="19" class="fil2" d="M120025 78660l0 -7429 2117 0c676,0 1186,165 1527,495 344,329 514,823 514,1483 0,347 -87,652 -261,918 -173,265 -408,470 -704,617 340,101 610,312 809,627 200,316 299,698 299,1144 0,667 -183,1193 -549,1574 -365,381 -888,571 -1563,571l-2189 0zm933 -3479l0 2675 1276 0c354,0 634,-117 842,-350 207,-234 311,-561 311,-983 0,-895 -378,-1342 -1133,-1342l-1296 0zm0 -784l1200 0c322,0 583,-108 782,-325 200,-218 299,-507 299,-868 0,-409 -90,-705 -271,-890 -180,-186 -455,-278 -826,-278l-1184 0 0 2361z"/>
  <polygon id="20" class="fil2" points="129472,78660 128575,78660 128575,76309 126585,76309 126585,78660 125678,78660 125678,73143 126585,73143 126585,75536 128575,75536 128575,73143 129472,73143 "/>
  <path id="21" class="fil2" d="M132424 77159l1007 -4016 957 0 -1806 6296c-135,472 -327,831 -576,1078 -247,245 -531,369 -846,369 -122,0 -279,-28 -471,-82l0 -764 201 21c261,0 466,-63 614,-187 148,-124 267,-338 359,-644l180 -617 -1624 -5470 984 0 1021 4016z"/>
  <polygon id="22" class="fil2" points="138754,73906 137248,73906 137248,78660 136351,78660 136351,73906 134865,73906 134865,73143 138754,73143 "/>
  <path id="23" class="fil2" d="M143691 76167c0,874 -156,1527 -472,1955 -313,429 -759,643 -1334,643 -554,0 -980,-209 -1280,-627l0 2643 -898 0 0 -7638 817 0 45 610c303,-476 736,-714 1301,-714 606,0 1059,211 1358,632 300,423 453,1053 463,1895l0 601zm-897 -514c0,-618 -95,-1075 -285,-1369 -192,-294 -498,-441 -920,-441 -432,0 -759,216 -984,648l0 2868c222,422 552,633 995,633 407,0 708,-147 900,-441 194,-294 291,-744 294,-1348l0 -550z"/>
  <path id="24" class="fil2" d="M146830 78765c-688,0 -1216,-206 -1584,-615 -365,-411 -553,-1012 -560,-1804l0 -669c0,-824 179,-1468 538,-1936 359,-469 860,-702 1503,-702 646,0 1128,205 1449,618 320,411 482,1053 489,1924l0 593 -3081 0 0 127c0,590 112,1020 335,1288 223,268 543,403 961,403 265,0 500,-51 702,-150 202,-101 392,-258 569,-476l469 572c-392,552 -988,827 -1790,827zm-103 -4953c-375,0 -652,129 -831,387 -181,257 -284,658 -307,1201l2174 0 0 -123c-24,-526 -119,-901 -284,-1127 -164,-225 -416,-338 -752,-338z"/>
  <polygon id="25" class="fil2" points="153626,78660 152729,78660 152729,76309 150739,76309 150739,78660 149832,78660 149832,73143 150739,73143 150739,75536 152729,75536 152729,73143 153626,73143 "/>
  <polygon id="26" class="fil2" points="158943,78660 158046,78660 158046,76309 156056,76309 156056,78660 155149,78660 155149,73143 156056,73143 156056,75536 158046,75536 158046,73143 158943,73143 "/>
  <path id="27" class="fil2" d="M163988 73143l0 5517 -904 0 0 -2152 -1065 0 -1113 2152 -969 0 1193 -2311c-299,-128 -525,-327 -682,-595 -157,-268 -235,-578 -235,-930 0,-507 164,-913 489,-1219 327,-308 766,-462 1317,-462l1969 0zm-2873 1690c0,271 73,491 219,654 147,166 345,247 592,247l1158 0 0 -1828 -1076 0c-268,0 -484,86 -647,258 -164,170 -246,393 -246,669z"/>
  <path id="28" class="fil2" d="M169030 73143l0 5517 -904 0 0 -2152 -1066 0 -1113 2152 -968 0 1193 -2311c-299,-128 -526,-327 -683,-595 -157,-268 -235,-578 -235,-930 0,-507 164,-913 490,-1219 327,-308 766,-462 1316,-462l1970 0zm-2874 1690c0,271 73,491 220,654 146,166 345,247 592,247l1158 0 0 -1828 -1076 0c-268,0 -485,86 -648,258 -164,170 -246,393 -246,669z"/>
  <path id="29" class="fil2" d="M172669 75646c0,-803 195,-1437 585,-1905 391,-469 904,-702 1543,-702 639,0 1155,228 1543,684 391,455 591,1076 601,1862l0 582c0,799 -195,1433 -582,1900 -388,464 -905,698 -1551,698 -639,0 -1153,-227 -1538,-679 -387,-453 -587,-1064 -601,-1838l0 -602zm904 519c0,567 112,1015 334,1339 223,326 523,488 901,488 796,0 1205,-575 1229,-1724l0 -624c0,-564 -111,-1012 -336,-1339 -224,-329 -526,-493 -904,-493 -371,0 -667,164 -890,493 -222,327 -334,773 -334,1334l0 526z"/>
  <polygon id="30" class="fil2" points="179094,73143 179094,77887 180650,77887 180650,73143 181547,73143 181547,77887 183109,77887 183109,73143 184011,73143 184011,78660 178186,78660 178186,73143 "/>
  <polygon id="31" class="fil2" points="188442,73143 189339,73143 189339,78660 188442,78660 188442,74637 186441,78660 185539,78660 185539,73143 186441,73143 186441,77171 "/>
  <path id="32" class="fil2" d="M192879 73457c582,0 1043,230 1388,691 343,461 514,1078 514,1850l0 76c0,817 -190,1470 -571,1958 -380,489 -885,733 -1510,733 -625,0 -1129,-248 -1510,-740 -382,-493 -571,-1157 -571,-1989l0 -465c0,-1139 177,-2052 534,-2738 357,-684 881,-1107 1573,-1268 397,-92 667,-200 808,-325 141,-126 212,-293 212,-500l730 0 -5 199c-42,672 -364,1099 -970,1280l-622 172c-449,123 -794,340 -1034,648 -239,310 -395,714 -467,1214 416,-532 916,-796 1501,-796zm-184 773c-361,0 -645,153 -856,460 -208,306 -313,768 -313,1386 0,599 105,1069 312,1412 207,343 494,514 862,514 367,0 656,-172 867,-515 211,-345 317,-856 317,-1529 0,-532 -106,-953 -319,-1263 -212,-310 -503,-465 -870,-465z"/>
  <polygon id="33" class="fil2" points="197252,76309 196742,76309 196742,78660 195840,78660 195840,73143 196742,73143 196742,75473 197191,75473 198696,73143 199772,73143 197931,75766 199906,78660 198772,78660 "/>
  <path id="34" class="fil2" d="M203610 78660c-56,-118 -94,-318 -118,-599 -319,469 -728,704 -1225,704 -500,0 -890,-141 -1170,-422 -280,-280 -421,-675 -421,-1185 0,-561 189,-1007 571,-1336 381,-330 904,-498 1567,-505l662 0 0 -589c0,-331 -73,-566 -219,-707 -147,-139 -370,-209 -668,-209 -273,0 -494,82 -663,244 -171,162 -256,367 -256,616l-902 0c0,-282 83,-552 249,-808 167,-258 392,-460 674,-606 282,-146 597,-219 944,-219 564,0 994,141 1288,421 295,281 445,690 452,1226l0 2785c3,426 61,794 174,1107l0 82 -939 0zm-1205 -721c221,0 432,-61 632,-183 202,-122 348,-275 439,-457l0 -1314 -511 0c-428,7 -766,103 -1015,288 -247,184 -372,444 -372,777 0,311 64,537 189,678 126,142 338,211 638,211z"/>
  <path id="35" class="fil2" d="M210085 77992c298,0 538,-93 719,-279 179,-185 279,-449 296,-792l852 0c-21,529 -209,970 -565,1320 -355,350 -788,524 -1302,524 -684,0 -1205,-216 -1564,-646 -359,-431 -538,-1071 -538,-1921l0 -608c0,-832 177,-1466 535,-1900 356,-434 877,-651 1562,-651 564,0 1011,177 1344,534 331,358 507,845 528,1463l-852 0c-21,-407 -118,-714 -294,-917 -174,-204 -418,-307 -726,-307 -403,0 -700,133 -894,395 -193,265 -294,697 -301,1299l0 704c0,650 96,1109 289,1377 192,270 495,405 911,405z"/>
  <path id="36" class="fil2" d="M214965 78765c-689,0 -1216,-206 -1584,-615 -365,-411 -553,-1012 -560,-1804l0 -669c0,-824 179,-1468 538,-1936 359,-469 860,-702 1503,-702 646,0 1128,205 1449,618 320,411 482,1053 489,1924l0 593 -3081 0 0 127c0,590 112,1020 335,1288 222,268 543,403 961,403 265,0 500,-51 702,-150 202,-101 392,-258 569,-476l469 572c-392,552 -988,827 -1790,827zm-103 -4953c-375,0 -652,129 -831,387 -181,257 -284,658 -307,1201l2174 0 0 -123c-24,-526 -119,-901 -284,-1127 -164,-225 -416,-338 -752,-338z"/>
  <path id="37" class="fil2" d="M221873 76167c0,874 -157,1527 -472,1955 -314,429 -759,643 -1334,643 -554,0 -981,-209 -1280,-627l0 2643 -899 0 0 -7638 817 0 45 610c303,-476 737,-714 1301,-714 606,0 1059,211 1359,632 299,423 452,1053 463,1895l0 601zm-897 -514c0,-618 -96,-1075 -286,-1369 -191,-294 -498,-441 -919,-441 -432,0 -760,216 -984,648l0 2868c221,422 552,633 994,633 408,0 709,-147 901,-441 193,-294 290,-744 294,-1348l0 -550z"/>
  <path id="38" class="fil2" d="M223116 78660l0 -5517 1853 0c632,0 1115,129 1449,387 333,259 500,634 500,1126 0,257 -66,485 -199,689 -134,205 -327,360 -581,470 282,75 508,226 681,453 170,228 257,503 257,827 0,510 -160,898 -477,1165 -319,266 -768,400 -1350,400l-2133 0zm899 -2424l0 1661 1245 0c608,0 912,-278 912,-835 0,-551 -308,-826 -923,-826l-1234 0zm0 -752l944 0c703,0 1055,-260 1055,-777 0,-521 -331,-787 -994,-801l-1005 0 0 1578z"/>
  <path id="39" class="fil2" d="M230272 78765c-688,0 -1216,-206 -1583,-615 -366,-411 -554,-1012 -561,-1804l0 -669c0,-824 179,-1468 538,-1936 359,-469 861,-702 1503,-702 646,0 1129,205 1449,618 321,411 483,1053 489,1924l0 593 -3080 0 0 127c0,590 111,1020 334,1288 223,268 544,403 961,403 265,0 500,-51 702,-150 202,-101 392,-258 570,-476l468 572c-392,552 -987,827 -1790,827zm-103 -4953c-374,0 -651,129 -831,387 -181,257 -283,658 -306,1201l2173 0 0 -123c-24,-526 -118,-901 -283,-1127 -164,-225 -417,-338 -753,-338z"/>
  <path id="40" class="fil2" d="M237180 76167c0,874 -156,1527 -472,1955 -313,429 -759,643 -1334,643 -554,0 -980,-209 -1279,-627l0 2643 -899 0 0 -7638 817 0 45 610c303,-476 736,-714 1301,-714 606,0 1059,211 1358,632 300,423 453,1053 463,1895l0 601zm-896 -514c0,-618 -96,-1075 -286,-1369 -192,-294 -498,-441 -920,-441 -432,0 -759,216 -983,648l0 2868c221,422 551,633 994,633 407,0 708,-147 900,-441 194,-294 291,-744 295,-1348l0 -550z"/>
  <path id="41" class="fil2" d="M241187 78660c-55,-118 -94,-318 -118,-599 -319,469 -728,704 -1224,704 -500,0 -890,-141 -1171,-422 -280,-280 -421,-675 -421,-1185 0,-561 190,-1007 571,-1336 382,-330 904,-498 1568,-505l661 0 0 -589c0,-331 -73,-566 -219,-707 -146,-139 -369,-209 -667,-209 -274,0 -495,82 -663,244 -171,162 -256,367 -256,616l-903 0c0,-282 84,-552 249,-808 168,-258 392,-460 674,-606 283,-146 598,-219 944,-219 564,0 995,141 1289,421 294,281 444,690 451,1226l0 2785c3,426 61,794 174,1107l0 82 -939 0zm-1205 -721c222,0 432,-61 633,-183 201,-122 348,-275 438,-457l0 -1314 -510 0c-428,7 -766,103 -1015,288 -247,184 -373,444 -373,777 0,311 65,537 190,678 125,142 338,211 637,211z"/>
 </g>
</svg>
