<svg xmlns="http://www.w3.org/2000/svg" xmlns:xlink="http://www.w3.org/1999/xlink" width="603" height="170" viewBox="0 0 20043 5658" shape-rendering="geometricPrecision" image-rendering="optimizeQuality" fill-rule="evenodd" xmlns:v="https://vecta.io/nano"><defs><radialGradient id="A" gradientUnits="userSpaceOnUse" gradientTransform="matrix(1.36573 -0 -0 1.36573 -3566 -569)" cx="9751" cy="1556" r="4158" fx="9751" fy="1556"><stop offset="0" stop-color="#a2d9f7"/><stop offset="1" stop-color="#008dd2"/></radialGradient><path id="B" d="M9153 4396l545-6 288-4 222-4 65 275c-21 50-54 136-99 256-44 121-76 204-96 250l-42 19c0 50 7 119 20 206l23 152-45 107-398 5-110-157-118-175-91-138h-360l-81-135 277-651zm1040-9l-498 9-337 3c-128 1-196 7-205 18l53 247 314-3c59 280 114 571 166 873l14 14 192-2c43-2 98-6 165-12l9-35c-11-79-29-185-55-318l-56-303c-11-68-20-141-25-217l310-17 13-28-60-229z"/></defs><g fill="#1a1a1a" fill-rule="nonzero"><path d="M1227 2866c30-5 54-7 75-7 35 0 57 22 65 67l29 157c16-24 35-60 56-108 21-47 41-84 60-109l297-7h22c17 0 40 1 70 4l45 3 218 1049-21 67c-7 26-13 45-18 56-9 21-21 42-36 63l-54 27h-961l-57-46-133-187-148-207c-35-51-69-107-103-166l281-648 3-6 310-2zm-2 8h-76c-25 0-50-2-74-5-55 0-105 4-151 11l185 1104c9 15 17 25 25 30 7 5 16 7 27 6h925c27-10 47-30 61-63 9-20 10-36 5-47l-219-1040h-32c-19 0-35 0-47-1h-42-39-30-202l-15 32 139 747-24 55c-21 9-44 14-70 14-12 0-25-1-40-3-14-2-25-3-32-4l-25-45-136-787c-7-6-21-9-42-9-10 0-23 1-39 3l-32 2zm2267-12l312 1150-36 100-456 13c-17-9-39-29-66-58-28-29-49-47-63-52l-47 101c-40 4-77 6-112 7l-124 2h-32-27-23-23-18-65-62l-460-600c25-58 64-163 118-315 53-153 94-263 123-330l32-14 398-4 131 128 55-121c26-3 55-5 85-6 31-1 65-1 104-1h131 125zm-28 7c-66 0-145 2-237 4l-144 4 56 326c-47-47-94-97-141-150-48-53-98-112-150-176h-94-95c-49 0-85 1-105 2-20 2-49 5-84 10 20 112 45 235 74 369l85 384 83 370c39 4 85 6 139 6 32 0 85-1 159-3l119-3-87-376c-2-4-1-11 3-20s9-14 17-15l281 411 249-3 183-3 7-15-105-391-103-367c-35-124-72-245-110-364zm522 16c8-8 61-14 158-19s166-7 205-7h590l46 29c32 105 64 214 94 329 31 115 59 230 86 345l81 343-12 54c-5 21-13 44-24 70-7 15-15 30-24 46l-73 45-974 8c-31-44-79-108-145-194l-162-217c-42-58-80-117-112-176l266-656zm867-19h-504c-2 1-59 3-170 5s-169 8-173 18l175 1094 23 35 943-6c16-5 32-13 46-23 15-10 24-22 27-35l7-62-250-975c-10-17-22-30-39-40-16-10-35-15-55-15-9 0-19 1-30 4zm-411 265c35-10 68-15 98-15 32 0 57 7 77 20s30 34 30 62l86 439c-2 10-4 22-6 35-2 14-4 23-7 28-4 11-11 21-20 29-12 4-24 6-35 7-10 1-22 2-34 2-20 0-41-3-62-9-14-50-26-99-37-148l-45-224-45-226zm1053-268l590-4 269-2 170-2c0 22 13 71 38 149 26 78 27 144 4 200-7 16-12 27-17 35-4 9-13 21-25 38 13 7 27 11 44 13s36 3 58 3c0 13 13 61 37 145s24 155-1 213c-9 21-21 44-38 69 4 6 8 10 15 13 6 2 14 3 25 3 20 0 39 0 59-1l65 291c-3 7-6 17-10 30-3 14-7 24-10 31-3 9-9 17-15 23-6 7-15 13-26 18H5648l-435-573 4-38 278-654zm1003-3l-419 9-554 5-4 49c21 106 42 223 61 353l59 395 56 349 334 1 372 3 353 2c6 0 12-6 17-19 3-6 4-12 5-18-5-11-14-49-27-113-12-64-25-108-40-132h-598c-11-41-18-73-22-96s-5-50-2-79l569-3c6-5 10-11 13-19 3-7 2-18-2-34-5-16-6-28-4-37l-47-176-581-8c-7-21-11-47-14-77l-8-88 539-9 16-14-49-230-23-14zm1481-1l31 15c20 51 39 107 56 169s29 113 37 152 20 112 38 218c-2 6-5 16-11 29-3 7-8 19-14 35-7 15-12 27-15 34-9 22-13 40-10 52 3 13 15 19 39 19 34 38 84 113 151 226 66 113 104 175 114 187 1 19-3 41-14 66a466.14 466.14 0 0 1-26 50l-540 20-145-146c-2 5-5 14-10 27s-9 26-13 37c-10 23-20 44-31 62-38 7-79 12-123 15s-87 5-128 5h-103-104l-328-438-6 3c-9-23-28-53-57-90-28-38-48-65-57-81l139-327 137-324 335-3 359-8 299-4zm34 62l-38-43h-939l-19 14 196 1106h95 97c39 0 76-1 111-3 35-3 68-7 101-15-4-37-14-101-32-191l-32-182 15-35c29 28 62 70 96 125l117 183c6 45 27 77 63 93 35 17 83 25 144 25 32 0 81-3 147-9 67-6 116-9 146-9 22 0 44 2 64 5-24-52-65-124-123-217l-101-161-333-102-26-25c20-6 43-10 68-12 26-2 51-3 74-3h78c25 0 50-1 75-4 14-6 26-11 36-17s17-14 21-25c3-6 4-12 3-18l-104-480zm-408 212c16 29 26 60 31 92 6 32 10 80 15 144-17 10-35 19-54 25-19 7-36 10-51 10-4 0-12-1-23-3-13-59-23-109-30-149-7-41-11-82-12-125 22-3 44-5 67-5 24 0 43 4 57 11zM1269 4382l31 16c20 50 39 107 56 169s29 112 37 151l38 219c-2 6-5 16-11 29-3 7-8 19-15 34-6 16-11 27-14 35-10 22-13 39-10 52s15 19 39 19c34 38 84 113 151 226 66 112 104 175 114 187 1 18-3 40-14 66a466.14 466.14 0 0 1-26 50l-540 20-145-147c-2 6-5 15-10 28s-9 25-13 36c-10 24-20 45-31 63-38 7-79 12-123 15s-87 5-129 5H552 448l-328-439-6 3c-9-22-28-52-57-90-28-37-48-64-57-81l139-326 137-324 335-3 359-8 299-5zm34 63l-38-43H326l-19 14 196 1106h95 97c39 0 76-1 111-3 35-3 68-8 101-15-4-37-14-101-32-191s-28-151-32-182l15-35c29 28 61 70 96 125l117 182c6 46 27 77 63 94 35 17 83 25 144 25 32 0 81-3 147-9 67-6 115-9 146-9 22 0 44 1 64 4-24-51-65-123-123-216l-101-161-333-103-26-24c20-6 43-10 68-12 26-2 51-3 74-3h78c25 0 50-2 75-5 14-5 26-10 36-16 10-7 17-15 21-25 2-6 3-12 3-18l-104-480zm-408 212c16 29 26 60 31 92 6 32 10 80 15 144-17 10-35 18-54 25s-36 10-51 10c-4 0-12-1-23-3-13-59-23-109-30-149-7-41-11-83-12-125 21-3 44-5 67-5 24 0 42 4 57 11zm928-270l590-5 270-1 169-2c0 21 13 71 39 149 26 77 27 144 3 200-6 15-12 27-16 35-5 8-13 21-26 38 13 6 28 10 45 12 16 2 36 3 57 3 0 14 13 62 37 146s24 155 0 213c-9 21-22 44-39 68 4 6 9 11 15 13 6 3 14 4 26 4 19 0 38 0 58-1l65 291c-3 7-6 17-9 30-4 13-7 23-10 31-4 9-9 17-16 23-6 7-15 13-26 18H1976l-435-573 4-38 278-654zm1004-3l-419 9-555 5-4 48c21 107 42 224 61 353l59 396 56 349 334 1 372 2 353 3c7 0 12-6 17-19 3-6 5-12 5-18-5-12-14-50-26-113-13-65-26-109-40-132h-599c-10-41-18-73-22-96-4-24-5-50-1-80l568-3c6-5 11-11 14-18s2-18-3-34-6-29-3-38l-48-176-581-7c-6-22-11-47-14-78l-8-87 539-10 17-13-49-230-23-14zm1366-2l74 282-153 389c-17 6-34 10-50 13-16 2-35 4-55 4-19 0-38-1-57-2l-55-3c-31 0-59 4-84 11 1 47 3 83 7 106 3 22 14 43 31 61 44 4 87 7 128 8s91 1 147 1h37 32 27 23 23 18 55 55 14l72 296c-5 6-10 13-13 21s-6 17-9 30l-5 21c-5 12-16 22-32 29-29 0-76 1-142 3l-106 3h-76l-46-6-637-5-56-55-302-525 2-58c14-44 33-94 57-150l33-77c11-26 22-51 34-77 21-49 36-87 46-114 10-26 19-57 27-91 3-3 5-9 8-19 3-9 7-18 11-29 5-12 12-21 21-27l59-24 288-3 302-8 247-5zm-25 16h-271-268-269c-17 7-32 16-44 29-12 12-22 26-29 43-5 12-3 47 8 104l45 252 53 311 43 303 36 84 344 2 349 5 287 2c-7-60-15-111-24-152s-23-79-41-113h-532l-34-22-112-574 42-31 480-7-24-155c-5-27-18-54-39-81zm477 6c91 0 183-2 277-5l303-10c109-5 193-7 252-7 18 0 32 1 42 2s20 4 29 9l52 126 255 924c-5 13-11 32-17 58s-12 47-18 61c-10 24-25 44-44 61l-68 24-892 5-95-46-361-517-8-38 223-611c4-9 12-17 24-25 13-7 28-11 46-11zm927 79c-10-19-19-37-28-56-15-19-34-29-58-29h-14l-838 13c-18 6-33 21-42 43-5 11-6 21-3 29l223 1025 35 32 935-9c24-9 41-26 51-50 8-18 9-35 3-50l-264-948zm-466 174c50 0 86 3 109 10 22 6 33 25 32 57 8 43 23 109 47 198l48 190c9 38 15 83 20 134-11 9-22 14-34 17s-25 5-38 5c-9 0-22-1-40-3-17-2-30-3-40-3-15-50-31-110-47-179l-48-207c-15-69-30-129-45-181 4-8 7-17 11-26 6-9 14-13 25-12zm2079-272l313 1151-36 100-456 13c-17-9-39-29-67-58-27-30-48-47-62-52l-47 101c-40 4-77 6-113 7l-123 2h-32-27-23-23-18-65-62l-460-600c25-58 64-163 118-316 53-152 94-262 123-329l32-14 398-5c43 44 87 86 131 128l54-120c27-3 56-5 86-6l104-2h131 124zm-27 8c-66 0-145 1-237 4l-144 4 56 326c-47-47-94-97-142-150l-149-176h-94-95c-50 0-85 0-105 2-21 1-49 5-84 10 20 112 45 235 74 369l84 384 84 370c39 4 85 6 139 6 31 0 84-1 159-3l119-3-87-376c-2-5-1-11 3-20s9-15 17-16l281 412 249-3 183-3 6-15-104-391-103-368-110-363zm607-1l314-2 321-5 273-3c2 30 16 80 41 153 24 72 24 139-3 201l-9 21-6 14 66 48c18 63 35 129 50 197s32 151 50 249l49 247c-3 6-7 17-12 33l-12 37c-7 16-15 29-23 38-9 9-22 16-39 21l-315 2-358 2-337 2c-33-42-60-79-81-109-22-31-24-65-8-104-64-19-119-65-166-139l-132-210-3-50 259-601c6-14 16-24 30-30s31-10 51-12zm890 18h-307-304-301c-27 12-42 27-43 46l94 579 30 24h526l37 14c0 8 5 28 15 60 9 32 10 57 2 75-5 12-16 25-32 38-184 0-356 7-515 20-2 45 3 91 14 138 10 47 20 86 28 117h953c4-3 10-7 17-13 7-5 13-12 17-21l-142-651-35-24-542-4c-17-17-29-39-37-66-7-27-3-54 12-79 82-9 169-16 259-19 91-4 190-6 297-6-2-36-6-71-13-105-7-35-17-76-30-123z"/><use xlink:href="#B"/><path d="M11528 4382l32 16c20 50 38 107 55 169s29 112 37 151 20 112 38 219c-2 6-5 16-11 29l-14 34-15 35c-9 22-13 39-10 52s16 19 39 19c34 38 85 113 151 226 66 112 104 175 114 187 1 18-3 40-14 66-8 18-16 35-26 50l-540 20-145-147c-1 6-4 15-10 28-5 13-9 25-13 36-10 24-20 45-31 63-37 7-79 12-122 15-45 3-87 5-129 5h-103-104l-328-439-6 3c-9-22-28-52-56-90-29-37-48-64-58-81l139-326 138-324 335-3 358-8 299-5zm34 63l-38-43h-939l-19 14 196 1106h95 97c40 0 77-1 111-3 35-3 68-8 101-15-4-37-14-101-32-191l-32-182 15-35c29 28 62 70 97 125 34 56 73 116 116 182 6 46 27 77 63 94 35 17 84 25 144 25 32 0 81-3 148-9 66-6 115-9 145-9 23 0 44 1 64 4-24-51-65-123-123-216l-101-161-333-103-26-24c20-6 43-10 68-12 26-2 51-3 74-3h78c25 0 50-2 75-5 14-5 26-10 36-16 10-7 17-15 21-25 3-6 4-12 3-18l-104-480zm-408 212c16 29 26 60 32 92 5 32 10 80 14 144-17 10-34 18-53 25-20 7-37 10-52 10-4 0-12-1-23-3-13-59-22-109-30-149-7-41-11-83-12-125 22-3 44-5 67-5 24 0 43 4 57 11zm1206-267c29-5 54-8 75-8 35 0 57 23 65 68l28 156c17-24 35-60 57-107 21-48 41-84 60-109l297-8h21c17 0 41 2 70 4l46 4 217 1048-20 68c-7 26-14 45-18 56-9 21-21 42-36 62l-54 28h-962l-57-46c-25-38-70-100-133-187l-147-207c-35-52-69-107-103-166l281-648 3-6 310-2zm-2 8h-76c-26 0-50-2-74-5-55 0-106 4-151 11l184 1104c9 15 18 24 25 29 8 5 17 8 27 7h925c28-10 48-31 62-63 8-20 10-36 5-47l-220-1040h-32c-19 0-34-1-46-1h-42-39-30-202l-15 32 139 746-24 56c-21 9-45 13-70 13-12 0-26 0-40-2l-32-4-25-46-137-786c-6-6-20-9-42-9-10 0-23 1-39 2-15 2-26 3-31 3zm2094-16l74 282-153 389c-17 6-33 10-50 13-16 2-34 4-55 4-19 0-38-1-57-2l-55-3c-31 0-58 4-84 11 1 47 3 83 7 106 3 22 14 43 32 61 44 4 86 7 127 8 42 1 91 1 148 1h36 32 28 22 23 19 54 55 14l73 296c-6 6-11 13-14 21s-6 17-9 30-4 20-5 21c-5 12-16 22-32 29-28 0-76 1-142 3l-106 3h-76l-46-6-637-5-56-55-302-525 2-58c14-44 33-94 57-150l33-77c11-26 22-51 34-77 21-49 36-87 46-114 10-26 19-57 28-91 2-3 4-9 7-19 3-9 7-18 11-29 5-12 12-21 21-27l59-24 288-3 302-8 247-5zm-25 16h-270-269-268c-18 7-32 16-45 29-12 12-22 26-29 43-5 12-2 47 8 104l45 252 53 311 43 303 36 84 344 2 349 5 287 2c-7-60-15-111-24-152-8-41-22-79-41-113h-532l-34-22-112-574 42-31 480-7c-10-76-18-128-24-155-5-27-18-54-39-81z"/><use xlink:href="#B" x="5685"/><path d="M16194 4382h451l106 422 81 327 94 415-40 94c-46 6-122 10-227 10-104 0-187 2-247 8-58-62-107-119-147-171-41-52-85-111-134-177l-200-273c29-69 74-181 135-336l128-319zm433 16h-387l-17 16 232 1117c23 6 48 10 74 12s55 3 86 3c30 0 75-1 136-4l136-5-68-338-89-380-103-421zm563 6c91 0 183-2 276-5l304-10c109-5 193-7 252-7 18 0 32 1 42 2s19 4 29 9l52 126 255 924c-5 13-11 32-17 58s-12 47-18 61c-10 24-25 44-44 61l-68 24-892 5-95-46-361-517-8-38 223-611c4-9 12-17 24-25 13-7 28-11 46-11zm926 79c-9-19-18-37-28-56-14-19-33-29-57-29h-14l-838 13c-19 6-33 21-42 43-5 11-6 21-3 29l222 1025 36 32 934-9c25-9 42-26 52-50 8-18 9-35 3-50l-265-948zm-465 174c50 0 86 3 109 10 22 6 33 25 32 57 8 43 23 109 47 198l48 190c8 38 15 83 19 134-10 9-21 14-33 17s-25 5-38 5c-9 0-22-1-40-3-17-2-31-3-40-3-15-50-31-110-47-179l-48-207c-15-69-30-129-45-181 4-8 7-17 11-26 6-9 14-13 25-12zm2079-272l313 1151-36 100-457 13c-16-9-38-29-66-58-27-30-48-47-62-52l-48 101c-39 4-76 6-112 7l-123 2h-32-27-23-23-18-65-62l-460-600c25-58 64-163 117-316 54-152 95-262 124-329l31-14 398-5c44 44 88 86 132 128l54-120c27-3 55-5 86-6l103-2h131 125zm-27 8c-66 0-145 1-237 4l-144 4 56 326c-47-47-94-97-142-150l-149-176h-95-94c-50 0-85 0-105 2-21 1-49 5-85 10l75 369 84 384 84 370c39 4 85 6 139 6 31 0 84-1 159-3l119-3-87-376c-2-5-1-11 2-20 4-9 10-15 18-16l280 412 249-3 184-3 6-15-104-391-103-368-110-363z"/></g><path d="M10429 330h3l172 9c30 2 71 6 121 11-119-214-256-341-393-341h0c-20 0-38-3-55-9-506 28-963 245-1300 583-224 224-395 500-493 809 92-67 197-127 315-182 408-190 966-309 1578-312-32-114-69-226-112-336-44-111 45-237 164-232zm526-250c64 94 122 203 173 324 175 32 348 73 517 125 34 11 100 76 111 110 55 172 98 346 132 521 39 16 78 33 115 50 102 48 196 100 279 157-99-299-267-566-485-784-232-232-520-407-842-503zm1428 1904c-46-154-203-300-436-423 11 99 19 198 25 296 7 120-119 211-231 167-95-36-208-68-330-95v77 1h0c0 620-107 1184-279 1595-47 110-98 209-154 298 313-98 593-270 819-496 362-362 586-861 586-1411h0 0v-9zm-1967 2005c145-53 286-241 401-516 157-374 255-892 255-1466h0v-1l-2-140c-136-21-275-38-407-52-67-8-144-85-150-152-14-141-33-282-60-424h-52 0-1c-571 0-1087 107-1458 280-332 154-537 353-538 558h0c0 19-3 38-9 55 34 495 250 941 582 1272 361 362 860 586 1410 586h0 0 29zm840-3213c19 68 36 139 52 212 71 14 140 31 207 48-17-70-35-139-55-208-68-19-136-37-204-52zm330 635c-69-23-141-43-216-62l24 230c75 16 149 32 219 51-8-74-17-147-27-219zm-538 109c-9-81-19-161-31-239-71-10-143-18-216-25 13 78 24 157 34 236l213 28zm-318-610c73 5 145 11 215 20-19-78-41-151-65-221-46-7-93-12-139-17-20-2-44-4-73-6 23 74 43 148 62 224z" fill="url(#A)" fill-rule="nonzero"/></svg>