<?xml version="1.0" encoding="UTF-8"?>
<!DOCTYPE svg PUBLIC "-//W3C//DTD SVG 1.1//EN" "http://www.w3.org/Graphics/SVG/1.1/DTD/svg11.dtd">
<!-- Creator: CorelDRAW 2018 (64-Bit) -->
<svg xmlns="http://www.w3.org/2000/svg" xml:space="preserve" width="603px" height="170px" version="1.1" style="shape-rendering:geometricPrecision; text-rendering:geometricPrecision; image-rendering:optimizeQuality; fill-rule:evenodd; clip-rule:evenodd"
viewBox="0 0 20043 5658"
 xmlns:xlink="http://www.w3.org/1999/xlink">
 <defs>
  <style type="text/css">
   <![CDATA[
    .fil0 {fill:#1A1A1A;fill-rule:nonzero}
    .fil1 {fill:url(#id0);fill-rule:nonzero}
   ]]>
  </style>
  <radialGradient id="id0" gradientUnits="userSpaceOnUse" gradientTransform="matrix(1.36573 -0 -0 1.36573 -3566 -569)" cx="9751" cy="1556" r="4158" fx="9751" fy="1556">
   <stop offset="0" style="stop-opacity:1; stop-color:#A2D9F7"/>
   <stop offset="1" style="stop-opacity:1; stop-color:#008DD2"/>
  </radialGradient>
 </defs>
 <g id="Layer_x0020_1">
  <metadata id="CorelCorpID_0Corel-Layer"/>
  <path class="fil0" d="M1227 2866c30,-5 54,-7 75,-7 35,0 57,22 65,67 9,46 18,98 29,157 16,-24 35,-60 56,-108 21,-47 41,-84 60,-109l297 -7 22 0c17,0 40,1 70,4 29,2 44,3 45,3l218 1049c-6,19 -13,42 -21,67 -7,26 -13,45 -18,56 -9,21 -21,42 -36,63l-54 27 -961 0 -57 -46c-26,-37 -70,-100 -133,-187 -64,-87 -113,-156 -148,-207 -35,-51 -69,-107 -103,-166l281 -648 3 -6 310 -2zm-2 8c-25,0 -51,0 -76,0 -25,0 -50,-2 -74,-5 -55,0 -105,4 -151,11l185 1104c9,15 17,25 25,30 7,5 16,7 27,6l925 0c27,-10 47,-30 61,-63 9,-20 10,-36 5,-47l-219 -1040c-2,0 -13,0 -32,0 -19,0 -35,0 -47,-1 -14,0 -28,0 -42,0 -13,0 -26,0 -39,0l-30 0 -202 0 -15 32 139 747 -24 55c-21,9 -44,14 -70,14 -12,0 -25,-1 -40,-3 -14,-2 -25,-3 -32,-4l-25 -45 -136 -787c-7,-6 -21,-9 -42,-9 -10,0 -23,1 -39,3 -16,1 -27,2 -32,2z"/>
  <path id="1" class="fil0" d="M3492 2862l312 1150 -36 100 -456 13c-17,-9 -39,-29 -66,-58 -28,-29 -49,-47 -63,-52l-47 101c-40,4 -77,6 -112,7 -36,1 -77,2 -124,2l-32 0 -27 0 -23 0 -23 0 -18 0c-22,0 -44,0 -65,0 -21,0 -41,0 -62,0l-460 -600c25,-58 64,-163 118,-315 53,-153 94,-263 123,-330l32 -14 398 -4c43,43 87,86 131,128l55 -121c26,-3 55,-5 85,-6 31,-1 65,-1 104,-1 29,0 73,0 131,0 58,0 99,0 125,0zm-28 7c-66,0 -145,2 -237,4 -92,3 -140,4 -144,4 19,109 38,217 56,326 -47,-47 -94,-97 -141,-150 -48,-53 -98,-112 -150,-176 -31,0 -63,0 -94,0 -32,0 -63,0 -95,0 -49,0 -85,1 -105,2 -20,2 -49,5 -84,10 20,112 45,235 74,369 29,134 57,262 85,384 27,122 55,245 83,370 39,4 85,6 139,6 32,0 85,-1 159,-3 75,-2 114,-3 119,-3l-87 -376c-2,-4 -1,-11 3,-20 4,-9 9,-14 17,-15l281 411c49,0 132,-1 249,-3 117,-2 178,-3 183,-3l7 -15c-37,-139 -72,-270 -105,-391 -33,-121 -68,-244 -103,-367 -35,-124 -72,-245 -110,-364z"/>
  <path id="2" class="fil0" d="M3986 2885c8,-8 61,-14 158,-19 97,-5 166,-7 205,-7l590 0 46 29c32,105 64,214 94,329 31,115 59,230 86,345 27,115 54,229 81,343 -3,14 -7,32 -12,54 -5,21 -13,44 -24,70 -7,15 -15,30 -24,46l-73 45 -974 8c-31,-44 -79,-108 -145,-194 -66,-86 -120,-158 -162,-217 -42,-58 -80,-117 -112,-176l266 -656zm867 -19l-504 0c-2,1 -59,3 -170,5 -111,2 -169,8 -173,18l175 1094 23 35 943 -6c16,-5 32,-13 46,-23 15,-10 24,-22 27,-35l7 -62 -250 -975c-10,-17 -22,-30 -39,-40 -16,-10 -35,-15 -55,-15 -9,0 -19,1 -30,4zm-411 265c35,-10 68,-15 98,-15 32,0 57,7 77,20 20,13 30,34 30,62l86 439c-2,10 -4,22 -6,35 -2,14 -4,23 -7,28 -4,11 -11,21 -20,29 -12,4 -24,6 -35,7 -10,1 -22,2 -34,2 -20,0 -41,-3 -62,-9 -14,-50 -26,-99 -37,-148 -10,-49 -25,-124 -45,-224 -19,-101 -34,-176 -45,-226z"/>
  <path id="3" class="fil0" d="M5495 2863l590 -4c68,0 158,-1 269,-2 112,-1 169,-2 170,-2 0,22 13,71 38,149 26,78 27,144 4,200 -7,16 -12,27 -17,35 -4,9 -13,21 -25,38 13,7 27,11 44,13 17,2 36,3 58,3 0,13 13,61 37,145 24,84 24,155 -1,213 -9,21 -21,44 -38,69 4,6 8,10 15,13 6,2 14,3 25,3 20,0 39,0 59,-1l65 291c-3,7 -6,17 -10,30 -3,14 -7,24 -10,31 -3,9 -9,17 -15,23 -6,7 -15,13 -26,18l-1079 0 -435 -573 4 -38 278 -654zm1003 -3l-419 9 -554 5 -4 49c21,106 42,223 61,353 19,129 39,261 59,395 20,135 39,251 56,349 93,0 204,0 334,1 129,1 253,2 372,3 118,0 236,1 353,2 6,0 12,-6 17,-19 3,-6 4,-12 5,-18 -5,-11 -14,-49 -27,-113 -12,-64 -25,-108 -40,-132l-598 0c-11,-41 -18,-73 -22,-96 -4,-23 -5,-50 -2,-79l569 -3c6,-5 10,-11 13,-19 3,-7 2,-18 -2,-34 -5,-16 -6,-28 -4,-37l-47 -176 -581 -8c-7,-21 -11,-47 -14,-77 -3,-30 -6,-60 -8,-88l539 -9 16 -14 -49 -230 -23 -14z"/>
  <path id="4" class="fil0" d="M7979 2859l31 15c20,51 39,107 56,169 17,62 29,113 37,152 8,39 20,112 38,218 -2,6 -5,16 -11,29 -3,7 -8,19 -14,35 -7,15 -12,27 -15,34 -9,22 -13,40 -10,52 3,13 15,19 39,19 34,38 84,113 151,226 66,113 104,175 114,187 1,19 -3,41 -14,66 -8,18 -17,35 -26,50l-540 20c-49,-49 -97,-98 -145,-146 -2,5 -5,14 -10,27 -5,13 -9,26 -13,37 -10,23 -20,44 -31,62 -38,7 -79,12 -123,15 -44,3 -87,5 -128,5 -23,0 -57,0 -103,0 -46,0 -80,0 -104,0l-328 -438 -6 3c-9,-23 -28,-53 -57,-90 -28,-38 -48,-65 -57,-81 34,-80 80,-189 139,-327 58,-137 104,-246 137,-324 117,0 229,-1 335,-3 107,-2 226,-5 359,-8 132,-3 232,-4 299,-4zm34 62l-38 -43 -939 0 -19 14 196 1106c31,0 63,0 95,0 32,0 64,0 97,0 39,0 76,-1 111,-3 35,-3 68,-7 101,-15 -4,-37 -14,-101 -32,-191 -17,-90 -28,-151 -32,-182l15 -35c29,28 62,70 96,125 35,56 74,117 117,183 6,45 27,77 63,93 35,17 83,25 144,25 32,0 81,-3 147,-9 67,-6 116,-9 146,-9 22,0 44,2 64,5 -24,-52 -65,-124 -123,-217 -59,-92 -92,-146 -101,-161l-333 -102 -26 -25c20,-6 43,-10 68,-12 26,-2 51,-3 74,-3l78 0c25,0 50,-1 75,-4 14,-6 26,-11 36,-17 10,-6 17,-14 21,-25 3,-6 4,-12 3,-18l-104 -480zm-408 212c16,29 26,60 31,92 6,32 10,80 15,144 -17,10 -35,19 -54,25 -19,7 -36,10 -51,10 -4,0 -12,-1 -23,-3 -13,-59 -23,-109 -30,-149 -7,-41 -11,-82 -12,-125 22,-3 44,-5 67,-5 24,0 43,4 57,11z"/>
  <path id="5" class="fil0" d="M1269 4382l31 16c20,50 39,107 56,169 17,62 29,112 37,151 7,39 20,112 38,219 -2,6 -5,16 -11,29 -3,7 -8,19 -15,34 -6,16 -11,27 -14,35 -10,22 -13,39 -10,52 3,13 15,19 39,19 34,38 84,113 151,226 66,112 104,175 114,187 1,18 -3,40 -14,66 -8,18 -17,35 -26,50l-540 20c-49,-49 -97,-98 -145,-147 -2,6 -5,15 -10,28 -5,13 -9,25 -13,36 -10,24 -20,45 -31,63 -38,7 -79,12 -123,15 -44,3 -87,5 -129,5 -22,0 -56,0 -102,0 -46,0 -80,0 -104,0l-328 -439 -6 3c-9,-22 -28,-52 -57,-90 -28,-37 -48,-64 -57,-81 34,-79 80,-188 139,-326 58,-138 104,-246 137,-324 117,0 229,-1 335,-3 107,-2 226,-5 359,-8 132,-3 232,-5 299,-5zm34 63l-38 -43 -939 0 -19 14 196 1106c31,0 63,0 95,0 32,0 64,0 97,0 39,0 76,-1 111,-3 35,-3 68,-8 101,-15 -4,-37 -14,-101 -32,-191 -18,-90 -28,-151 -32,-182l15 -35c29,28 61,70 96,125 35,56 74,116 117,182 6,46 27,77 63,94 35,17 83,25 144,25 32,0 81,-3 147,-9 67,-6 115,-9 146,-9 22,0 44,1 64,4 -24,-51 -65,-123 -123,-216 -59,-92 -92,-146 -101,-161l-333 -103 -26 -24c20,-6 43,-10 68,-12 26,-2 51,-3 74,-3l78 0c25,0 50,-2 75,-5 14,-5 26,-10 36,-16 10,-7 17,-15 21,-25 2,-6 3,-12 3,-18l-104 -480zm-408 212c16,29 26,60 31,92 6,32 10,80 15,144 -17,10 -35,18 -54,25 -19,7 -36,10 -51,10 -4,0 -12,-1 -23,-3 -13,-59 -23,-109 -30,-149 -7,-41 -11,-83 -12,-125 21,-3 44,-5 67,-5 24,0 42,4 57,11z"/>
  <path id="6" class="fil0" d="M1823 4387l590 -5c68,0 158,0 270,-1 111,-1 168,-2 169,-2 0,21 13,71 39,149 26,77 27,144 3,200 -6,15 -12,27 -16,35 -5,8 -13,21 -26,38 13,6 28,10 45,12 16,2 36,3 57,3 0,14 13,62 37,146 24,84 24,155 0,213 -9,21 -22,44 -39,68 4,6 9,11 15,13 6,3 14,4 26,4 19,0 38,0 58,-1l65 291c-3,7 -6,17 -9,30 -4,13 -7,23 -10,31 -4,9 -9,17 -16,23 -6,7 -15,13 -26,18l-1079 0 -435 -573 4 -38 278 -654zm1004 -3l-419 9 -555 5 -4 48c21,107 42,224 61,353 19,130 39,262 59,396 20,135 39,251 56,349 93,0 204,0 334,1 130,1 254,2 372,2 118,1 236,2 353,3 7,0 12,-6 17,-19 3,-6 5,-12 5,-18 -5,-12 -14,-50 -26,-113 -13,-65 -26,-109 -40,-132l-599 0c-10,-41 -18,-73 -22,-96 -4,-24 -5,-50 -1,-80l568 -3c6,-5 11,-11 14,-18 3,-7 2,-18 -3,-34 -5,-16 -6,-29 -3,-38l-48 -176 -581 -7c-6,-22 -11,-47 -14,-78 -3,-30 -6,-59 -8,-87l539 -10 17 -13 -49 -230 -23 -14z"/>
  <path id="7" class="fil0" d="M4193 4382l74 282 -153 389c-17,6 -34,10 -50,13 -16,2 -35,4 -55,4 -19,0 -38,-1 -57,-2 -19,-1 -37,-2 -55,-3 -31,0 -59,4 -84,11 1,47 3,83 7,106 3,22 14,43 31,61 44,4 87,7 128,8 41,1 91,1 147,1l37 0 32 0 27 0 23 0 23 0 18 0c19,0 37,0 55,0 19,0 37,0 55,0l14 0 72 296c-5,6 -10,13 -13,21 -3,8 -6,17 -9,30 -3,13 -5,20 -5,21 -5,12 -16,22 -32,29 -29,0 -76,1 -142,3 -67,2 -102,3 -106,3 -25,0 -51,0 -76,0 -21,-3 -37,-5 -46,-6l-637 -5 -56 -55 -302 -525 2 -58c14,-44 33,-94 57,-150 11,-25 22,-51 33,-77 11,-26 22,-51 34,-77 21,-49 36,-87 46,-114 10,-26 19,-57 27,-91 3,-3 5,-9 8,-19 3,-9 7,-18 11,-29 5,-12 12,-21 21,-27l59 -24c101,0 197,-1 288,-3 90,-2 191,-5 302,-8 112,-3 194,-5 247,-5zm-25 16c-90,0 -181,0 -271,0 -89,0 -179,0 -268,0 -90,0 -179,0 -269,0 -17,7 -32,16 -44,29 -12,12 -22,26 -29,43 -5,12 -3,47 8,104 10,58 25,142 45,252 20,111 38,214 53,311 15,97 30,198 43,303l36 84c134,0 249,0 344,2 95,1 212,3 349,5 138,1 233,2 287,2 -7,-60 -15,-111 -24,-152 -9,-41 -23,-79 -41,-113l-532 0 -34 -22 -112 -574 42 -31 480 -7c-11,-76 -18,-128 -24,-155 -5,-27 -18,-54 -39,-81z"/>
  <path id="8" class="fil0" d="M4645 4404c91,0 183,-2 277,-5 93,-3 194,-6 303,-10 109,-5 193,-7 252,-7 18,0 32,1 42,2 10,1 20,4 29,9l52 126 255 924c-5,13 -11,32 -17,58 -6,26 -12,47 -18,61 -10,24 -25,44 -44,61l-68 24 -892 5 -95 -46 -361 -517 -8 -38 223 -611c4,-9 12,-17 24,-25 13,-7 28,-11 46,-11zm927 79c-10,-19 -19,-37 -28,-56 -15,-19 -34,-29 -58,-29l-14 0 -838 13c-18,6 -33,21 -42,43 -5,11 -6,21 -3,29l223 1025 35 32 935 -9c24,-9 41,-26 51,-50 8,-18 9,-35 3,-50l-264 -948zm-466 174c50,0 86,3 109,10 22,6 33,25 32,57 8,43 23,109 47,198 23,88 39,151 48,190 9,38 15,83 20,134 -11,9 -22,14 -34,17 -12,3 -25,5 -38,5 -9,0 -22,-1 -40,-3 -17,-2 -30,-3 -40,-3 -15,-50 -31,-110 -47,-179 -17,-69 -32,-138 -48,-207 -15,-69 -30,-129 -45,-181 4,-8 7,-17 11,-26 6,-9 14,-13 25,-12z"/>
  <path id="9" class="fil0" d="M7185 4385l313 1151 -36 100 -456 13c-17,-9 -39,-29 -67,-58 -27,-30 -48,-47 -62,-52l-47 101c-40,4 -77,6 -113,7 -35,1 -76,2 -123,2l-32 0 -27 0 -23 0 -23 0 -18 0c-23,0 -44,0 -65,0 -21,0 -41,0 -62,0l-460 -600c25,-58 64,-163 118,-316 53,-152 94,-262 123,-329l32 -14 398 -5c43,44 87,86 131,128l54 -120c27,-3 56,-5 86,-6 30,-1 65,-2 104,-2 29,0 73,0 131,0 57,0 99,0 124,0zm-27 8c-66,0 -145,1 -237,4 -92,2 -140,4 -144,4 19,108 37,217 56,326 -47,-47 -94,-97 -142,-150 -47,-54 -97,-112 -149,-176 -31,0 -63,0 -94,0 -32,0 -63,0 -95,0 -50,0 -85,0 -105,2 -21,1 -49,5 -84,10 20,112 45,235 74,369 29,134 57,262 84,384 28,121 56,245 84,370 39,4 85,6 139,6 31,0 84,-1 159,-3 74,-2 114,-3 119,-3l-87 -376c-2,-5 -1,-11 3,-20 4,-9 9,-15 17,-16l281 412c48,0 131,-1 249,-3 117,-2 178,-3 183,-3l6 -15c-36,-140 -71,-270 -104,-391 -33,-122 -68,-244 -103,-368 -36,-123 -72,-244 -110,-363z"/>
  <path id="10" class="fil0" d="M7765 4392c122,0 226,-1 314,-2 87,-1 194,-3 321,-5 127,-2 218,-3 273,-3 2,30 16,80 41,153 24,72 24,139 -3,201 -4,9 -7,16 -9,21l-6 14 66 48c18,63 35,129 50,197 15,68 32,151 50,249 19,98 35,180 49,247 -3,6 -7,17 -12,33 -5,16 -9,28 -12,37 -7,16 -15,29 -23,38 -9,9 -22,16 -39,21 -84,0 -189,1 -315,2 -125,1 -245,2 -358,2 -113,1 -225,1 -337,2 -33,-42 -60,-79 -81,-109 -22,-31 -24,-65 -8,-104 -64,-19 -119,-65 -166,-139 -47,-73 -91,-143 -132,-210l-3 -50 259 -601c6,-14 16,-24 30,-30 14,-6 31,-10 51,-12zm890 18c-103,0 -205,0 -307,0 -102,0 -204,0 -304,0 -101,0 -201,0 -301,0 -27,12 -42,27 -43,46l94 579 30 24 526 0 37 14c0,8 5,28 15,60 9,32 10,57 2,75 -5,12 -16,25 -32,38 -184,0 -356,7 -515,20 -2,45 3,91 14,138 10,47 20,86 28,117l953 0c4,-3 10,-7 17,-13 7,-5 13,-12 17,-21l-142 -651 -35 -24 -542 -4c-17,-17 -29,-39 -37,-66 -7,-27 -3,-54 12,-79 82,-9 169,-16 259,-19 91,-4 190,-6 297,-6 -2,-36 -6,-71 -13,-105 -7,-35 -17,-76 -30,-123z"/>
  <path id="11" class="fil0" d="M9153 4396l545 -6c69,0 165,-1 288,-4 123,-2 197,-4 222,-4l65 275c-21,50 -54,136 -99,256 -44,121 -76,204 -96,250l-42 19c0,50 7,119 20,206 13,87 21,138 23,152l-45 107 -398 5c-20,-28 -57,-80 -110,-157 -53,-77 -92,-136 -118,-175 -26,-39 -57,-85 -91,-138l-360 0 -81 -135 277 -651zm1040 -9l-498 9c-97,1 -209,2 -337,3 -128,1 -196,7 -205,18 18,83 35,165 53,247l314 -3c59,280 114,571 166,873l14 14c85,0 149,-1 192,-2 43,-2 98,-6 165,-12l9 -35c-11,-79 -29,-185 -55,-318 -26,-133 -45,-234 -56,-303 -11,-68 -20,-141 -25,-217l310 -17 13 -28 -60 -229z"/>
  <path id="12" class="fil0" d="M11528 4382l32 16c20,50 38,107 55,169 17,62 29,112 37,151 8,39 20,112 38,219 -2,6 -5,16 -11,29 -3,7 -8,19 -14,34 -7,16 -12,27 -15,35 -9,22 -13,39 -10,52 3,13 16,19 39,19 34,38 85,113 151,226 66,112 104,175 114,187 1,18 -3,40 -14,66 -8,18 -16,35 -26,50l-540 20c-48,-49 -97,-98 -145,-147 -1,6 -4,15 -10,28 -5,13 -9,25 -13,36 -10,24 -20,45 -31,63 -37,7 -79,12 -122,15 -45,3 -87,5 -129,5 -23,0 -57,0 -103,0 -45,0 -80,0 -104,0l-328 -439 -6 3c-9,-22 -28,-52 -56,-90 -29,-37 -48,-64 -58,-81 34,-79 80,-188 139,-326 58,-138 104,-246 138,-324 116,0 228,-1 335,-3 106,-2 226,-5 358,-8 132,-3 232,-5 299,-5zm34 63l-38 -43 -939 0 -19 14 196 1106c31,0 63,0 95,0 32,0 64,0 97,0 40,0 77,-1 111,-3 35,-3 68,-8 101,-15 -4,-37 -14,-101 -32,-191 -17,-90 -28,-151 -32,-182l15 -35c29,28 62,70 97,125 34,56 73,116 116,182 6,46 27,77 63,94 35,17 84,25 144,25 32,0 81,-3 148,-9 66,-6 115,-9 145,-9 23,0 44,1 64,4 -24,-51 -65,-123 -123,-216 -58,-92 -92,-146 -101,-161l-333 -103 -26 -24c20,-6 43,-10 68,-12 26,-2 51,-3 74,-3l78 0c25,0 50,-2 75,-5 14,-5 26,-10 36,-16 10,-7 17,-15 21,-25 3,-6 4,-12 3,-18l-104 -480zm-408 212c16,29 26,60 32,92 5,32 10,80 14,144 -17,10 -34,18 -53,25 -20,7 -37,10 -52,10 -4,0 -12,-1 -23,-3 -13,-59 -22,-109 -30,-149 -7,-41 -11,-83 -12,-125 22,-3 44,-5 67,-5 24,0 43,4 57,11z"/>
  <path id="13" class="fil0" d="M12360 4390c29,-5 54,-8 75,-8 35,0 57,23 65,68 8,45 18,98 28,156 17,-24 35,-60 57,-107 21,-48 41,-84 60,-109l297 -8 21 0c17,0 41,2 70,4 30,3 45,4 46,4l217 1048c-6,20 -13,42 -20,68 -7,26 -14,45 -18,56 -9,21 -21,42 -36,62l-54 28 -962 0 -57 -46c-25,-38 -70,-100 -133,-187 -63,-87 -112,-156 -147,-207 -35,-52 -69,-107 -103,-166l281 -648 3 -6 310 -2zm-2 8c-25,0 -51,0 -76,0 -26,0 -50,-2 -74,-5 -55,0 -106,4 -151,11l184 1104c9,15 18,24 25,29 8,5 17,8 27,7l925 0c28,-10 48,-31 62,-63 8,-20 10,-36 5,-47l-220 -1040c-2,0 -12,0 -32,0 -19,0 -34,-1 -46,-1 -15,0 -29,0 -42,0 -14,0 -27,0 -39,0l-30 0 -202 0 -15 32 139 746 -24 56c-21,9 -45,13 -70,13 -12,0 -26,0 -40,-2 -15,-2 -25,-3 -32,-4l-25 -46 -137 -786c-6,-6 -20,-9 -42,-9 -10,0 -23,1 -39,2 -15,2 -26,3 -31,3z"/>
  <path id="14" class="fil0" d="M14452 4382l74 282 -153 389c-17,6 -33,10 -50,13 -16,2 -34,4 -55,4 -19,0 -38,-1 -57,-2 -19,-1 -37,-2 -55,-3 -31,0 -58,4 -84,11 1,47 3,83 7,106 3,22 14,43 32,61 44,4 86,7 127,8 42,1 91,1 148,1l36 0 32 0 28 0 22 0 23 0 19 0c18,0 36,0 54,0 19,0 37,0 55,0l14 0 73 296c-6,6 -11,13 -14,21 -3,8 -6,17 -9,30 -3,13 -4,20 -5,21 -5,12 -16,22 -32,29 -28,0 -76,1 -142,3 -67,2 -102,3 -106,3 -25,0 -51,0 -76,0 -21,-3 -36,-5 -46,-6l-637 -5 -56 -55 -302 -525 2 -58c14,-44 33,-94 57,-150 11,-25 22,-51 33,-77 11,-26 22,-51 34,-77 21,-49 36,-87 46,-114 10,-26 19,-57 28,-91 2,-3 4,-9 7,-19 3,-9 7,-18 11,-29 5,-12 12,-21 21,-27l59 -24c102,0 198,-1 288,-3 90,-2 191,-5 302,-8 112,-3 194,-5 247,-5zm-25 16c-90,0 -180,0 -270,0 -90,0 -180,0 -269,0 -90,0 -179,0 -268,0 -18,7 -32,16 -45,29 -12,12 -22,26 -29,43 -5,12 -2,47 8,104 10,58 25,142 45,252 20,111 38,214 53,311 15,97 30,198 43,303l36 84c134,0 249,0 344,2 96,1 212,3 349,5 138,1 234,2 287,2 -7,-60 -15,-111 -24,-152 -8,-41 -22,-79 -41,-113l-532 0 -34 -22 -112 -574 42 -31 480 -7c-10,-76 -18,-128 -24,-155 -5,-27 -18,-54 -39,-81z"/>
  <path id="15" class="fil0" d="M14838 4396l545 -6c69,0 165,-1 288,-4 123,-2 197,-4 222,-4l65 275c-21,50 -54,136 -99,256 -44,121 -76,204 -96,250l-42 19c0,50 7,119 20,206 13,87 21,138 23,152l-45 107 -398 5c-20,-28 -57,-80 -110,-157 -53,-77 -92,-136 -118,-175 -26,-39 -57,-85 -91,-138l-360 0 -81 -135 277 -651zm1040 -9l-498 9c-97,1 -209,2 -337,3 -128,1 -196,7 -205,18 18,83 36,165 53,247l314 -3c59,280 114,571 166,873l14 14c85,0 149,-1 192,-2 43,-2 98,-6 165,-12l9 -35c-11,-79 -29,-185 -55,-318 -26,-133 -44,-234 -56,-303 -11,-68 -20,-141 -25,-217l310 -17 13 -28 -60 -229z"/>
  <path id="16" class="fil0" d="M16194 4382l451 0c39,152 74,293 106,422 32,129 59,238 81,327 21,89 53,228 94,415l-40 94c-46,6 -122,10 -227,10 -104,0 -187,2 -247,8 -58,-62 -107,-119 -147,-171 -41,-52 -85,-111 -134,-177 -49,-66 -115,-157 -200,-273 29,-69 74,-181 135,-336 61,-156 103,-262 128,-319zm433 16l-387 0 -17 16 232 1117c23,6 48,10 74,12 26,2 55,3 86,3 30,0 75,-1 136,-4 61,-3 107,-5 136,-5 -24,-126 -46,-238 -68,-338 -22,-99 -52,-226 -89,-380 -38,-154 -72,-295 -103,-421z"/>
  <path id="17" class="fil0" d="M17190 4404c91,0 183,-2 276,-5 94,-3 195,-6 304,-10 109,-5 193,-7 252,-7 18,0 32,1 42,2 10,1 19,4 29,9l52 126 255 924c-5,13 -11,32 -17,58 -6,26 -12,47 -18,61 -10,24 -25,44 -44,61l-68 24 -892 5 -95 -46 -361 -517 -8 -38 223 -611c4,-9 12,-17 24,-25 13,-7 28,-11 46,-11zm926 79c-9,-19 -18,-37 -28,-56 -14,-19 -33,-29 -57,-29l-14 0 -838 13c-19,6 -33,21 -42,43 -5,11 -6,21 -3,29l222 1025 36 32 934 -9c25,-9 42,-26 52,-50 8,-18 9,-35 3,-50l-265 -948zm-465 174c50,0 86,3 109,10 22,6 33,25 32,57 8,43 23,109 47,198 23,88 39,151 48,190 8,38 15,83 19,134 -10,9 -21,14 -33,17 -12,3 -25,5 -38,5 -9,0 -22,-1 -40,-3 -17,-2 -31,-3 -40,-3 -15,-50 -31,-110 -47,-179 -17,-69 -33,-138 -48,-207 -15,-69 -30,-129 -45,-181 4,-8 7,-17 11,-26 6,-9 14,-13 25,-12z"/>
  <path id="18" class="fil0" d="M19730 4385l313 1151 -36 100 -457 13c-16,-9 -38,-29 -66,-58 -27,-30 -48,-47 -62,-52l-48 101c-39,4 -76,6 -112,7 -35,1 -76,2 -123,2l-32 0 -27 0 -23 0 -23 0 -18 0c-23,0 -44,0 -65,0 -21,0 -42,0 -62,0l-460 -600c25,-58 64,-163 117,-316 54,-152 95,-262 124,-329l31 -14 398 -5c44,44 88,86 132,128l54 -120c27,-3 55,-5 86,-6 30,-1 65,-2 103,-2 30,0 73,0 131,0 58,0 100,0 125,0zm-27 8c-66,0 -145,1 -237,4 -92,2 -140,4 -144,4 18,108 37,217 56,326 -47,-47 -94,-97 -142,-150 -47,-54 -97,-112 -149,-176 -32,0 -63,0 -95,0 -31,0 -63,0 -94,0 -50,0 -85,0 -105,2 -21,1 -49,5 -85,10 21,112 46,235 75,369 29,134 57,262 84,384 28,121 55,245 84,370 39,4 85,6 139,6 31,0 84,-1 159,-3 74,-2 114,-3 119,-3l-87 -376c-2,-5 -1,-11 2,-20 4,-9 10,-15 18,-16l280 412c49,0 132,-1 249,-3 118,-2 179,-3 184,-3l6 -15c-36,-140 -71,-270 -104,-391 -33,-122 -68,-244 -103,-368 -36,-123 -72,-244 -110,-363z"/>
  <path class="fil1" d="M10429 330l3 0c64,3 121,6 172,9 30,2 71,6 121,11 -119,-214 -256,-341 -393,-341l0 0c-20,0 -38,-3 -55,-9 -506,28 -963,245 -1300,583 -224,224 -395,500 -493,809 92,-67 197,-127 315,-182 408,-190 966,-309 1578,-312 -32,-114 -69,-226 -112,-336 -44,-111 45,-237 164,-232zm526 -250c64,94 122,203 173,324 175,32 348,73 517,125 34,11 100,76 111,110 55,172 98,346 132,521 39,16 78,33 115,50 102,48 196,100 279,157 -99,-299 -267,-566 -485,-784 -232,-232 -520,-407 -842,-503zm1428 1904c-46,-154 -203,-300 -436,-423 11,99 19,198 25,296 7,120 -119,211 -231,167 -95,-36 -208,-68 -330,-95 0,26 0,51 0,77l0 1 0 0c0,620 -107,1184 -279,1595 -47,110 -98,209 -154,298 313,-98 593,-270 819,-496 362,-362 586,-861 586,-1411l0 0 0 0c0,-3 0,-6 0,-9zm-1967 2005c145,-53 286,-241 401,-516 157,-374 255,-892 255,-1466l0 0 0 -1c0,-47 -1,-94 -2,-140 -136,-21 -275,-38 -407,-52 -67,-8 -144,-85 -150,-152 -14,-141 -33,-282 -60,-424 -17,0 -34,0 -52,0l0 0 -1 0c-571,0 -1087,107 -1458,280 -332,154 -537,353 -538,558l0 0c0,19 -3,38 -9,55 34,495 250,941 582,1272 361,362 860,586 1410,586l0 0 0 0c10,0 20,0 29,0zm840 -3213c19,68 36,139 52,212 71,14 140,31 207,48 -17,-70 -35,-139 -55,-208 -68,-19 -136,-37 -204,-52zm330 635c-69,-23 -141,-43 -216,-62 9,76 18,152 24,230 75,16 149,32 219,51 -8,-74 -17,-147 -27,-219zm-538 109c-9,-81 -19,-161 -31,-239 -71,-10 -143,-18 -216,-25 13,78 24,157 34,236 70,9 141,18 213,28zm-318 -610c73,5 145,11 215,20 -19,-78 -41,-151 -65,-221 -46,-7 -93,-12 -139,-17 -20,-2 -44,-4 -73,-6 23,74 43,148 62,224z"/>
 </g>
</svg>
