<svg xmlns="http://www.w3.org/2000/svg" width="1117" height="250" viewBox="0 0 286779 64226" shape-rendering="geometricPrecision" image-rendering="optimizeQuality" fill-rule="evenodd"><defs><linearGradient id="A" gradientUnits="userSpaceOnUse" x1="181696" y1="50202" x2="181696" y2="14029"><stop offset=".3" stop-color="#000"/><stop offset=".9" stop-color="#555"/></linearGradient></defs><g fill-rule="nonzero"><path d="M101107 38004c-173 4016-1303 7051-3382 9105-2078 2062-5006 3093-8791 3093-3984 0-7027-1312-9146-3926-2120-2623-3176-6359-3176-11208v-5930c0-4833 1097-8561 3283-11183 2194-2615 5237-3926 9138-3926 3827 0 6746 1072 8734 3208 1987 2144 3117 5221 3389 9229h-7125c-66-2483-446-4190-1147-5138-701-940-1987-1410-3851-1410-1905 0-3250 668-4041 1995-784 1336-1204 3522-1254 6573v6656c0 3497 388 5905 1171 7208 784 1311 2120 1963 4025 1963 1864 0 3159-454 3868-1369 709-907 1105-2556 1204-4940h7101zm21171 4528h-9683l-1888 7175h-7513l10993-35183h6499l11068 35183h-7588l-1888-7175zm-8140-5938h6573l-3283-12553-3290 12553zm20907 13113V14524h9303c4107 0 7381 1303 9822 3917 2441 2606 3687 6186 3728 10730v5699c0 4627-1221 8256-3654 10886-2441 2631-5806 3951-10094 3951h-9105zm7101-29245v23356h2127c2367 0 4033-627 5007-1872 964-1245 1468-3398 1517-6457v-6112c0-3291-462-5575-1377-6878-916-1295-2483-1971-4685-2037h-2589zm27966 16874v12371h-7109V14524h11984c3480 0 6259 1080 8329 3241 2070 2153 3101 4957 3101 8404s-1022 6169-3068 8173c-2045 1996-4882 2994-8503 2994h-4734zm0-5938h4875c1360 0 2399-445 3142-1328 742-883 1113-2169 1113-3851 0-1749-379-3143-1138-4182-751-1031-1765-1559-3043-1575h-4949v10936zm45814 3884c0 4726-1113 8388-3348 11002-2227 2615-5328 3918-9287 3918-3950 0-7051-1295-9303-3885-2251-2581-3398-6210-3431-10861v-6021c0-4841 1122-8618 3357-11332 2243-2713 5352-4074 9328-4074 3917 0 7002 1336 9253 4000 2260 2672 3398 6416 3431 11233v6020zm-7126-5913c0-3175-453-5534-1352-7084-899-1543-2301-2318-4206-2318-1881 0-3275 742-4182 2235-899 1493-1369 3761-1402 6804v6260c0 3084 462 5352 1378 6812 923 1460 2342 2186 4255 2186 1856 0 3233-710 4132-2136 899-1427 1361-3646 1377-6639v-6120zm19629 20338h-7101V14524h7101v35183zm30557 0h-7101l-10392-23076v23076h-7101V14524h7101l10416 23100V14524h7077v35183zm27793-29245h-8693v29245h-7125V20462h-8561v-5938h24379v5938z" fill="url(#A)"/></g></svg>