<svg xmlns="http://www.w3.org/2000/svg" width="1117" height="250" viewBox="0 0 286779 64226" shape-rendering="geometricPrecision" image-rendering="optimizeQuality" fill-rule="evenodd" xmlns:v="https://vecta.io/nano"><defs><linearGradient id="A" gradientUnits="userSpaceOnUse" x1="181696" y1="50202" x2="181696" y2="14029"><stop offset="0" stop-color="#555"/><stop offset=".2" stop-color="#555"/><stop offset=".4" stop-color="#1f1b20"/><stop offset=".6"/><stop offset="1" stop-color="#555"/></linearGradient><radialGradient id="B" gradientUnits="userSpaceOnUse" gradientTransform="matrix(1.36572 -0 -0 1.36573 -7983 -9161)" cx="21827" cy="25048" r="32113" fx="21827" fy="25048"><stop offset="0" stop-color="#a2d9f7"/><stop offset="1" stop-color="#008dd2"/></radialGradient></defs><g fill-rule="nonzero"><path d="M32745 5313l46 1 2760 148c491 35 1140 92 1955 172-1919-3450-4117-5487-6335-5487h-2c-308 0-602-52-878-147-8147 446-15503 3952-20935 9383-3605 3605-6360 8056-7938 13024 1485-1068 3185-2047 5071-2925 6570-3057 15551-4969 25404-5018-504-1839-1099-3648-1796-5414-706-1785 731-3813 2648-3737zm8469-4030c1021 1521 1954 3275 2783 5228 2813 501 5596 1165 8319 2011 552 172 1606 1223 1783 1773 891 2760 1587 5562 2120 8380 637 259 1256 528 1854 806 1648 767 3153 1611 4498 2525-1596-4806-4299-9115-7806-12621-3731-3732-8371-6555-13551-8102zm22982 30651c-736-2470-3262-4823-7021-6801 175 1598 307 3189 399 4767 112 1923-1911 3387-3717 2692-1520-586-3340-1095-5315-1535l10 1244v10 6c-1 9970-1724 19056-4502 25670-744 1769-1572 3375-2474 4795 5034-1568 9544-4344 13188-7988 5823-5822 9433-13856 9433-22703v-2-5l-1-150zM32532 64222c2338-862 4595-3879 6456-8307 2528-6018 4096-14366 4096-23598v-6-10l-32-2260c-2190-337-4421-614-6543-844-1077-116-2318-1367-2425-2446-223-2257-532-4537-952-6816l-840-4h-10-5c-9199 0-17505 1725-23481 4506-5339 2485-8650 5679-8651 8985v2c0 309-51 605-145 882 548 7967 4023 15155 9354 20487 5822 5822 13856 9432 22704 9433h2 5l467-4zm13520-51731c303 1098 582 2237 835 3411 1142 235 2253 497 3333 784-267-1131-561-2250-888-3357-1085-309-2179-588-3280-838zm5308 10225c-1111-363-2271-693-3478-991 157 1210 287 2446 390 3703 1213 246 2395 515 3521 810-119-1184-264-2359-433-3522zm-8664 1759c-133-1316-297-2600-492-3849-1135-164-2296-300-3479-408 209 1261 389 2531 544 3804l3427 453zm-5112-9831c1173 82 2331 190 3468 323-317-1243-668-2432-1048-3559l-2250-267-1171-104c370 1191 701 2394 1001 3607z" fill="url(#B)"/><path d="M101107 38004c-173 4016-1303 7051-3382 9105-2078 2062-5006 3093-8791 3093-3984 0-7027-1312-9146-3926-2120-2623-3176-6359-3176-11208v-5930c0-4833 1097-8561 3283-11183 2194-2615 5237-3926 9138-3926 3827 0 6746 1072 8734 3208 1987 2144 3117 5221 3389 9229h-7125c-66-2483-446-4190-1147-5138-701-940-1987-1410-3851-1410-1905 0-3250 668-4041 1995-784 1336-1204 3522-1254 6573v6656c0 3497 388 5905 1171 7208 784 1311 2120 1963 4025 1963 1864 0 3159-454 3868-1369 709-907 1105-2556 1204-4940h7101zm21171 4528h-9683l-1888 7175h-7513l10993-35183h6499l11068 35183h-7588l-1888-7175zm-8140-5938h6573l-3283-12553-3290 12553zm20907 13113V14524h9303c4107 0 7381 1303 9822 3917 2441 2606 3687 6186 3728 10730v5699c0 4627-1221 8256-3654 10886-2441 2631-5806 3951-10094 3951h-9105zm7101-29245v23356h2127c2367 0 4033-627 5007-1872 964-1245 1468-3398 1517-6457v-6112c0-3291-462-5575-1377-6878-916-1295-2483-1971-4685-2037h-2589zm27966 16874v12371h-7109V14524h11984c3480 0 6259 1080 8329 3241 2070 2153 3101 4957 3101 8404s-1022 6169-3068 8173c-2045 1996-4882 2994-8503 2994h-4734zm0-5938h4875c1360 0 2399-445 3142-1328 742-883 1113-2169 1113-3851 0-1749-379-3143-1138-4182-751-1031-1765-1559-3043-1575h-4949v10936zm45814 3884c0 4726-1113 8388-3348 11002-2227 2615-5328 3918-9287 3918-3950 0-7051-1295-9303-3885-2251-2581-3398-6210-3431-10861v-6021c0-4841 1122-8618 3357-11332 2243-2713 5352-4074 9328-4074 3917 0 7002 1336 9253 4000 2260 2672 3398 6416 3431 11233v6020zm-7126-5913c0-3175-453-5534-1352-7084-899-1543-2301-2318-4206-2318-1881 0-3275 742-4182 2235-899 1493-1369 3761-1402 6804v6260c0 3084 462 5352 1378 6812 923 1460 2342 2186 4255 2186 1856 0 3233-710 4132-2136 899-1427 1361-3646 1377-6639v-6120zm19629 20338h-7101V14524h7101v35183zm30557 0h-7101l-10392-23076v23076h-7101V14524h7101l10416 23100V14524h7077v35183zm27793-29245h-8693v29245h-7125V20462h-8561v-5938h24379v5938z" fill="url(#A)"/></g></svg>