<svg xmlns="http://www.w3.org/2000/svg" xmlns:xlink="http://www.w3.org/1999/xlink" width="1117" height="315" viewBox="0 0 286779 80886" shape-rendering="geometricPrecision" image-rendering="optimizeQuality" fill-rule="evenodd"><defs><linearGradient id="A" gradientUnits="userSpaceOnUse" x1="181696" y1="50202" x2="181696" y2="14029"><stop offset="0" stop-color="#555"/><stop offset=".26" stop-color="#555"/><stop offset=".4" stop-color="#1f1b20"/><stop offset=".6"/><stop offset="1" stop-color="#555"/></linearGradient><radialGradient id="B" gradientUnits="userSpaceOnUse" gradientTransform="matrix(1.36572 -0 -0 1.36573 -7983 -9161)" cx="21827" cy="25048" r="32113" fx="21827" fy="25048"><stop offset="0" stop-color="#a2d9f7"/><stop offset="1" stop-color="#008dd2"/></radialGradient><path id="C" d="M123361 61104l26 594c351-465 798-698 1343-698 975 0 1470 651 1484 1954v3667h-899v-3624c0-432-71-738-216-919-144-183-362-274-651-274-223 0-425 75-604 225-178 150-323 345-431 585v4007h-903v-5517h851z"/><path id="D" d="M166154 61945c-125-24-263-36-409-36-461 0-785 254-968 761v3951h-904v-5517h878l15 559c242-442 584-663 1026-663 143 0 261 24 357 71l5 874z"/><path id="E" d="M178721 61945c-125-24-263-36-409-36-462 0-786 254-968 761v3951h-904v-5517h877l16 559c242-442 583-663 1026-663 143 0 261 24 357 71l5 874z"/><path id="F" d="M129472 78660h-897v-2351h-1990v2351h-907v-5517h907v2393h1990v-2393h897z"/></defs><g fill-rule="nonzero"><path d="M32745 5313l46 1 2760 148c491 35 1140 92 1955 172-1919-3450-4117-5487-6335-5487h-2c-308 0-602-52-878-147-8147 446-15503 3952-20935 9383-3605 3605-6360 8056-7938 13024 1485-1068 3185-2047 5071-2925 6570-3057 15551-4969 25404-5018-504-1839-1099-3648-1796-5414-706-1785 731-3813 2648-3737zm8469-4030c1021 1521 1954 3275 2783 5228 2813 501 5596 1165 8319 2011 552 172 1606 1223 1783 1773 891 2760 1587 5562 2120 8380 637 259 1256 528 1854 806 1648 767 3153 1611 4498 2525-1596-4806-4299-9115-7806-12621-3731-3732-8371-6555-13551-8102zm22982 30651c-736-2470-3262-4823-7021-6801 175 1598 307 3189 399 4767 112 1923-1911 3387-3717 2692-1520-586-3340-1095-5315-1535l10 1244v10 6c-1 9970-1724 19056-4502 25670-744 1769-1572 3375-2474 4795 5034-1568 9544-4344 13188-7988 5823-5822 9433-13856 9433-22703v-2-5l-1-150zM32532 64222c2338-862 4595-3879 6456-8307 2528-6018 4096-14366 4096-23598v-6-10l-32-2260c-2190-337-4421-614-6543-844-1077-116-2318-1367-2425-2446-223-2257-532-4537-952-6816l-840-4h-10-5c-9199 0-17505 1725-23481 4506-5339 2485-8650 5679-8651 8985v2c0 309-51 605-145 882 548 7967 4023 15155 9354 20487 5822 5822 13856 9432 22704 9433h2 5l467-4zm13520-51731c303 1098 582 2237 835 3411 1142 235 2253 497 3333 784-267-1131-561-2250-888-3357-1085-309-2179-588-3280-838zm5308 10225c-1111-363-2271-693-3478-991 157 1210 287 2446 390 3703 1213 246 2395 515 3521 810-119-1184-264-2359-433-3522zm-8664 1759c-133-1316-297-2600-492-3849-1135-164-2296-300-3479-408 209 1261 389 2531 544 3804l3427 453zm-5112-9831c1173 82 2331 190 3468 323-317-1243-668-2432-1048-3559l-2250-267-1171-104c370 1191 701 2394 1001 3607z" fill="url(#B)"/><path d="M101107 38004c-173 4016-1303 7051-3382 9105-2078 2062-5006 3093-8791 3093-3984 0-7027-1312-9146-3926-2120-2623-3176-6359-3176-11208v-5930c0-4833 1097-8561 3283-11183 2194-2615 5237-3926 9138-3926 3827 0 6746 1072 8734 3208 1987 2144 3117 5221 3389 9229h-7125c-66-2483-446-4190-1147-5138-701-940-1987-1410-3851-1410-1905 0-3250 668-4041 1995-784 1336-1204 3522-1254 6573v6656c0 3497 388 5905 1171 7208 784 1311 2120 1963 4025 1963 1864 0 3159-454 3868-1369 709-907 1105-2556 1204-4940h7101zm21171 4528h-9683l-1888 7175h-7513l10993-35183h6499l11068 35183h-7588l-1888-7175zm-8140-5938h6573l-3283-12553-3290 12553zm20907 13113V14524h9303c4107 0 7381 1303 9822 3917 2441 2606 3687 6186 3728 10730v5699c0 4627-1221 8256-3654 10886-2441 2631-5806 3951-10094 3951h-9105zm7101-29245v23356h2127c2367 0 4033-627 5007-1872 964-1245 1468-3398 1517-6457v-6112c0-3291-462-5575-1377-6878-916-1295-2483-1971-4685-2037h-2589zm27966 16874v12371h-7109V14524h11984c3480 0 6259 1080 8329 3241 2070 2153 3101 4957 3101 8404s-1022 6169-3068 8173c-2045 1996-4882 2994-8503 2994h-4734zm0-5938h4875c1360 0 2399-445 3142-1328 742-883 1113-2169 1113-3851 0-1749-379-3143-1138-4182-751-1031-1765-1559-3043-1575h-4949v10936zm45814 3884c0 4726-1113 8388-3348 11002-2227 2615-5328 3918-9287 3918-3950 0-7051-1295-9303-3885-2251-2581-3398-6210-3431-10861v-6021c0-4841 1122-8618 3357-11332 2243-2713 5352-4074 9328-4074 3917 0 7002 1336 9253 4000 2260 2672 3398 6416 3431 11233v6020zm-7126-5913c0-3175-453-5534-1352-7084-899-1543-2301-2318-4206-2318-1881 0-3275 742-4182 2235-899 1493-1369 3761-1402 6804v6260c0 3084 462 5352 1378 6812 923 1460 2342 2186 4255 2186 1856 0 3233-710 4132-2136 899-1427 1361-3646 1377-6639v-6120zm19629 20338h-7101V14524h7101v35183zm30557 0h-7101l-10392-23076v23076h-7101V14524h7101l10416 23100V14524h7077v35183zm27793-29245h-8693v29245h-7125V20462h-8561v-5938h24379v5938z" fill="url(#A)"/><g fill="#2b2a29"><use xlink:href="#C"/><path d="M128746 59767v1337h832v732h-832v3422c0 217 36 383 108 494 71 113 193 169 367 169 119 0 239-21 362-61l-10 765c-204 66-413 101-629 101-357 0-628-127-815-383-188-255-280-615-280-1080v-3427h-843v-732h843v-1337h897zm3878 6959c-688 0-1215-206-1583-615-366-411-554-1012-561-1804v-669c0-824 180-1468 538-1936 359-469 861-702 1503-702 646 0 1129 205 1449 618 321 411 483 1053 490 1924v592h-3081v128c0 590 111 1020 334 1288s544 403 962 403c264 0 499-51 702-150 201-101 391-258 569-476l468 572c-392 552-987 827-1790 827zm-103-4953c-374 0-651 129-830 387-181 257-284 658-307 1201h2174v-123c-25-526-119-901-284-1127-164-225-417-338-753-338zm5303 172c-125-24-263-36-409-36-462 0-785 254-968 761v3951h-904v-5517h877l16 559c242-442 584-663 1026-663 143 0 261 24 357 71l5 874z"/><use xlink:href="#C" x="16213"/><path d="M146620 66621c-55-118-94-318-118-599-319 469-728 704-1225 704-499 0-889-141-1170-422-280-280-421-676-421-1186 0-561 189-1006 571-1335 381-330 904-498 1567-505h662v-589c0-331-73-566-219-707-147-139-370-209-667-209-274 0-495 82-664 244-171 162-256 367-256 616h-902c0-282 84-552 249-808 167-258 392-460 674-606s597-219 944-219c564 0 994 141 1289 421 294 281 444 690 451 1226v2785c3 426 61 794 174 1107v82h-939zm-1205-721c221 0 432-61 632-183 202-122 349-275 439-458v-1313h-510c-429 7-767 103-1016 288-247 184-372 444-372 777 0 311 64 537 190 678 125 142 337 211 637 211zm4342 721h-903v-7836h903zm7183-1879c0-369-101-653-301-851-200-197-563-389-1087-577-524-186-925-383-1202-588-276-206-483-441-621-706-138-263-207-566-207-905 0-589 197-1075 590-1456 392-382 907-571 1543-571 435 0 822 97 1163 292 340 195 601 467 786 813 183 347 275 728 275 1143h-939c0-460-109-815-331-1066-221-252-540-378-954-378-378 0-670 106-878 317-207 211-312 507-312 888 0 314 114 577 339 788 222 212 570 400 1039 567 731 242 1254 540 1569 893 315 354 472 817 472 1390 0 603-195 1085-587 1447-390 363-923 544-1597 544-432 0-830-94-1196-284s-653-456-862-798c-209-343-314-735-314-1177h939c0 460 129 817 385 1071 258 256 606 383 1048 383 413 0 721-106 928-317 208-211 312-498 312-862zm4014 1984c-688 0-1215-206-1583-615-365-411-553-1012-560-1804v-669c0-824 179-1468 538-1936 359-469 860-702 1503-702 646 0 1128 205 1449 618 320 411 482 1053 489 1924v592h-3081v128c0 590 112 1020 335 1288 222 268 543 403 961 403 265 0 500-51 702-150 202-101 392-258 569-476l469 572c-392 552-988 827-1791 827zm-102-4953c-375 0-652 129-831 387-181 257-284 658-307 1201h2174v-123c-24-526-119-901-284-1127-164-225-416-338-752-338z"/><use xlink:href="#D"/><path d="M168713 65249l1044-4145h920l-1639 5517h-672l-1658-5517h918zm4808 1477c-688 0-1215-206-1583-615-366-411-554-1012-561-1804v-669c0-824 180-1468 538-1936 359-469 861-702 1503-702 646 0 1129 205 1449 618 321 411 483 1053 490 1924v592h-3081v128c0 590 111 1020 334 1288s544 403 961 403c265 0 500-51 702-150 202-101 392-258 570-476l468 572c-392 552-987 827-1790 827zm-103-4953c-374 0-651 129-830 387-182 257-284 658-307 1201h2173v-123c-24-526-118-901-283-1127-164-225-417-338-753-338z"/><use xlink:href="#E"/><path d="M185701 63194h-2628v2623h3062v804h-3996v-7429h3945v805h-3011v2392h2628zm3779-1249c-126-24-263-36-409-36-462 0-786 254-969 761v3951h-903v-5517h877l16 559c242-442 583-663 1026-663 142 0 261 24 357 71l5 874z"/><use xlink:href="#E" x="13937"/><path d="M193266 63607c0-803 195-1437 585-1905 390-469 904-702 1543-702s1154 228 1543 684c390 455 590 1076 601 1862v582c0 799-196 1433-582 1900-388 464-906 698-1552 698-639 0-1153-227-1537-679-387-453-587-1064-601-1838v-602zm903 519c0 567 112 1015 335 1339 223 326 522 488 900 488 796 0 1205-575 1230-1725v-623c0-564-112-1012-336-1339-225-329-526-493-904-493-371 0-667 164-890 493-223 327-335 773-335 1334v526z"/><use xlink:href="#D" x="34826"/><path d="M120025 78660v-7429h2117c676 0 1186 165 1527 495 344 329 514 823 514 1483 0 347-87 652-261 918-173 265-408 470-704 617 340 101 610 312 809 627 200 316 299 698 299 1144 0 667-183 1193-549 1574-365 381-888 571-1563 571h-2189zm933-3479v2675h1276c354 0 634-117 842-350 207-234 311-561 311-983 0-895-378-1342-1133-1342h-1296zm0-784h1200c322 0 583-108 782-325 200-218 299-507 299-868 0-409-90-705-271-890-180-186-455-278-826-278h-1184v2361z"/><use xlink:href="#F"/><path d="M132424 77159l1007-4016h957l-1806 6296c-135 472-327 831-576 1078-247 245-531 369-846 369-122 0-279-28-471-82v-764l201 21c261 0 466-63 614-187s267-338 359-644l180-617-1624-5470h984l1021 4016zm6330-3253h-1506v4754h-897v-4754h-1486v-763h3889zm4937 2261c0 874-156 1527-472 1955-313 429-759 643-1334 643-554 0-980-209-1280-627v2643h-898v-7638h817l45 610c303-476 736-714 1301-714 606 0 1059 211 1358 632 300 423 453 1053 463 1895v601zm-897-514c0-618-95-1075-285-1369-192-294-498-441-920-441-432 0-759 216-984 648v2868c222 422 552 633 995 633 407 0 708-147 900-441 194-294 291-744 294-1348v-550zm4036 3112c-688 0-1216-206-1584-615-365-411-553-1012-560-1804v-669c0-824 179-1468 538-1936 359-469 860-702 1503-702 646 0 1128 205 1449 618 320 411 482 1053 489 1924v593h-3081v127c0 590 112 1020 335 1288s543 403 961 403c265 0 500-51 702-150 202-101 392-258 569-476l469 572c-392 552-988 827-1790 827zm-103-4953c-375 0-652 129-831 387-181 257-284 658-307 1201h2174v-123c-24-526-119-901-284-1127-164-225-416-338-752-338z"/><use xlink:href="#F" x="24154"/><use xlink:href="#F" x="29471"/><path d="M163988 73143v5517h-904v-2152h-1065l-1113 2152h-969l1193-2311c-299-128-525-327-682-595s-235-578-235-930c0-507 164-913 489-1219 327-308 766-462 1317-462h1969zm-2873 1690c0 271 73 491 219 654 147 166 345 247 592 247h1158v-1828h-1076c-268 0-484 86-647 258-164 170-246 393-246 669zm7915-1690v5517h-904v-2152h-1066l-1113 2152h-968l1193-2311c-299-128-526-327-683-595s-235-578-235-930c0-507 164-913 490-1219 327-308 766-462 1316-462h1970zm-2874 1690c0 271 73 491 220 654 146 166 345 247 592 247h1158v-1828h-1076c-268 0-485 86-648 258-164 170-246 393-246 669zm6513 813c0-803 195-1437 585-1905 391-469 904-702 1543-702s1155 228 1543 684c391 455 591 1076 601 1862v582c0 799-195 1433-582 1900-388 464-905 698-1551 698-639 0-1153-227-1538-679-387-453-587-1064-601-1838v-602zm904 519c0 567 112 1015 334 1339 223 326 523 488 901 488 796 0 1205-575 1229-1724v-624c0-564-111-1012-336-1339-224-329-526-493-904-493-371 0-667 164-890 493-222 327-334 773-334 1334v526zm5521-3022v4744h1556v-4744h897v4744h1562v-4744h902v5517h-5825v-5517zm9348 0h897v5517h-897v-4023l-2001 4023h-902v-5517h902v4028zm4437 314c582 0 1043 230 1388 691 343 461 514 1078 514 1850v76c0 817-190 1470-571 1958-380 489-885 733-1510 733s-1129-248-1510-740c-382-493-571-1157-571-1989v-465c0-1139 177-2052 534-2738 357-684 881-1107 1573-1268 397-92 667-200 808-325 141-126 212-293 212-500h730l-5 199c-42 672-364 1099-970 1280l-622 172c-449 123-794 340-1034 648-239 310-395 714-467 1214 416-532 916-796 1501-796zm-184 773c-361 0-645 153-856 460-208 306-313 768-313 1386 0 599 105 1069 312 1412s494 514 862 514c367 0 656-172 867-515 211-345 317-856 317-1529 0-532-106-953-319-1263-212-310-503-465-870-465zm4557 2079h-510v2351h-902v-5517h902v2330h449l1505-2330h1076l-1841 2623 1975 2894h-1134zm6358 2351c-56-118-94-318-118-599-319 469-728 704-1225 704-500 0-890-141-1170-422-280-280-421-675-421-1185 0-561 189-1007 571-1336 381-330 904-498 1567-505h662v-589c0-331-73-566-219-707-147-139-370-209-668-209-273 0-494 82-663 244-171 162-256 367-256 616h-902c0-282 83-552 249-808 167-258 392-460 674-606s597-219 944-219c564 0 994 141 1288 421 295 281 445 690 452 1226v2785c3 426 61 794 174 1107v82h-939zm-1205-721c221 0 432-61 632-183 202-122 348-275 439-457v-1314h-511c-428 7-766 103-1015 288-247 184-372 444-372 777 0 311 64 537 189 678 126 142 338 211 638 211zm7680 53c298 0 538-93 719-279 179-185 279-449 296-792h852c-21 529-209 970-565 1320-355 350-788 524-1302 524-684 0-1205-216-1564-646-359-431-538-1071-538-1921v-608c0-832 177-1466 535-1900 356-434 877-651 1562-651 564 0 1011 177 1344 534 331 358 507 845 528 1463h-852c-21-407-118-714-294-917-174-204-418-307-726-307-403 0-700 133-894 395-193 265-294 697-301 1299v704c0 650 96 1109 289 1377 192 270 495 405 911 405zm4880 773c-689 0-1216-206-1584-615-365-411-553-1012-560-1804v-669c0-824 179-1468 538-1936 359-469 860-702 1503-702 646 0 1128 205 1449 618 320 411 482 1053 489 1924v593h-3081v127c0 590 112 1020 335 1288 222 268 543 403 961 403 265 0 500-51 702-150 202-101 392-258 569-476l469 572c-392 552-988 827-1790 827zm-103-4953c-375 0-652 129-831 387-181 257-284 658-307 1201h2174v-123c-24-526-119-901-284-1127-164-225-416-338-752-338zm7011 2355c0 874-157 1527-472 1955-314 429-759 643-1334 643-554 0-981-209-1280-627v2643h-899v-7638h817l45 610c303-476 737-714 1301-714 606 0 1059 211 1359 632 299 423 452 1053 463 1895v601zm-897-514c0-618-96-1075-286-1369-191-294-498-441-919-441-432 0-760 216-984 648v2868c221 422 552 633 994 633 408 0 709-147 901-441 193-294 290-744 294-1348v-550zm2140 3007v-5517h1853c632 0 1115 129 1449 387 333 259 500 634 500 1126 0 257-66 485-199 689-134 205-327 360-581 470 282 75 508 226 681 453 170 228 257 503 257 827 0 510-160 898-477 1165-319 266-768 400-1350 400h-2133zm899-2424v1661h1245c608 0 912-278 912-835 0-551-308-826-923-826h-1234zm0-752h944c703 0 1055-260 1055-777 0-521-331-787-994-801h-1005v1578zm6257 3281c-688 0-1216-206-1583-615-366-411-554-1012-561-1804v-669c0-824 179-1468 538-1936 359-469 861-702 1503-702 646 0 1129 205 1449 618 321 411 483 1053 489 1924v593h-3080v127c0 590 111 1020 334 1288s544 403 961 403c265 0 500-51 702-150 202-101 392-258 570-476l468 572c-392 552-987 827-1790 827zm-103-4953c-374 0-651 129-831 387-181 257-283 658-306 1201h2173v-123c-24-526-118-901-283-1127-164-225-417-338-753-338zm7011 2355c0 874-156 1527-472 1955-313 429-759 643-1334 643-554 0-980-209-1279-627v2643h-899v-7638h817l45 610c303-476 736-714 1301-714 606 0 1059 211 1358 632 300 423 453 1053 463 1895v601zm-896-514c0-618-96-1075-286-1369-192-294-498-441-920-441-432 0-759 216-983 648v2868c221 422 551 633 994 633 407 0 708-147 900-441 194-294 291-744 295-1348v-550zm4903 3007c-55-118-94-318-118-599-319 469-728 704-1224 704-500 0-890-141-1171-422-280-280-421-675-421-1185 0-561 190-1007 571-1336 382-330 904-498 1568-505h661v-589c0-331-73-566-219-707-146-139-369-209-667-209-274 0-495 82-663 244-171 162-256 367-256 616h-903c0-282 84-552 249-808 168-258 392-460 674-606 283-146 598-219 944-219 564 0 995 141 1289 421 294 281 444 690 451 1226v2785c3 426 61 794 174 1107v82h-939zm-1205-721c222 0 432-61 633-183s348-275 438-457v-1314h-510c-428 7-766 103-1015 288-247 184-373 444-373 777 0 311 65 537 190 678 125 142 338 211 637 211z"/></g></g></svg>